<?xml version="1.0" encoding="utf-8" standalone="no"?>
<!DOCTYPE svg PUBLIC "-//W3C//DTD SVG 1.1//EN"
  "http://www.w3.org/Graphics/SVG/1.1/DTD/svg11.dtd">
<svg xmlns:xlink="http://www.w3.org/1999/xlink" width="1073.489883pt" height="460.110992pt" viewBox="0 0 1073.489883 460.110992" xmlns="http://www.w3.org/2000/svg" version="1.1">
 <metadata>
  <rdf:RDF xmlns:dc="http://purl.org/dc/elements/1.1/" xmlns:cc="http://creativecommons.org/ns#" xmlns:rdf="http://www.w3.org/1999/02/22-rdf-syntax-ns#">
   <cc:Work>
    <dc:type rdf:resource="http://purl.org/dc/dcmitype/StillImage"/>
    <dc:date>2026-09-12T14:41:12.421381</dc:date>
    <dc:format>image/svg+xml</dc:format>
    <dc:creator>
     <cc:Agent>
      <dc:title>Matplotlib v3.11.2, https://matplotlib.org/</dc:title>
     </cc:Agent>
    </dc:creator>
   </cc:Work>
  </rdf:RDF>
 </metadata>
 <defs>
  <style type="text/css">*{stroke-linejoin: round; stroke-linecap: butt}</style>
 </defs>
 <g id="figure_1">
  <g id="patch_1">
   <path d="M 0 460.110992 
L 1073.489883 460.110992 
L 1073.489883 0 
L 0 0 
z
" style="fill: #ffffff"/>
  </g>
  <g id="axes_1">
   <g id="patch_2">
    <path d="M 52.58418 399.797718 
L 1066.289883 399.797718 
L 1066.289883 31.760156 
L 52.58418 31.760156 
z
" style="fill: #ffffff"/>
   </g>
   <g id="patch_3">
    <path d="M 98.661712 399.797718 
L 173.584528 399.797718 
L 173.584528 31.760156 
L 98.661712 31.760156 
z
" clip-path="url(#p5eec805173)" style="fill: #eceff1; opacity: 0.7; stroke: #eceff1; stroke-linejoin: miter"/>
   </g>
   <g id="matplotlib.axis_1">
    <g id="xtick_1">
     <g id="line2d_1">
      <path d="M 98.661712 399.797718 
L 98.661712 31.760156 
" clip-path="url(#p5eec805173)" style="fill: none; stroke: #d8d8d8; stroke-opacity: 0.75; stroke-width: 0.7; stroke-linecap: square"/>
     </g>
     <g id="line2d_2">
      <defs>
       <path id="me0ff23c336" d="M 0 0 
L 0 3.5 
" style="stroke: #000000; stroke-width: 0.8"/>
      </defs>
      <g>
       <use xlink:href="#me0ff23c336" x="98.661712" y="399.797718" style="stroke: #000000; stroke-width: 0.8"/>
      </g>
     </g>
     <g id="text_1">
      <!-- 2025-01 -->
      <g transform="translate(64.842701 436.111872) rotate(-35) scale(0.1 -0.1)">
       <defs>
        <path id="MicrosoftYaHei-18" d="M 2666 3572 
Q 2666 3963 2419 4186 
Q 2172 4409 1747 4409 
Q 1447 4409 1140 4256 
Q 834 4103 569 3819 
L 569 4413 
Q 806 4659 1107 4790 
Q 1409 4922 1816 4922 
Q 2472 4922 2872 4570 
Q 3272 4219 3272 3619 
Q 3272 3084 3026 2693 
Q 2781 2303 2188 1894 
Q 1581 1475 1376 1294 
Q 1172 1113 1090 947 
Q 1009 781 1009 544 
L 3416 544 
L 3416 0 
L 372 0 
L 372 241 
Q 372 659 486 951 
Q 600 1244 862 1520 
Q 1125 1797 1681 2184 
Q 2250 2584 2458 2886 
Q 2666 3188 2666 3572 
z
" transform="scale(0.015625)"/>
        <path id="MicrosoftYaHei-16" d="M 284 2325 
Q 284 3606 709 4264 
Q 1134 4922 1941 4922 
Q 3478 4922 3478 2441 
Q 3478 1216 3045 567 
Q 2613 -81 1831 -81 
Q 1094 -81 689 534 
Q 284 1150 284 2325 
z
M 909 2353 
Q 909 425 1888 425 
Q 2850 425 2850 2384 
Q 2850 4413 1906 4413 
Q 909 4413 909 2353 
z
" transform="scale(0.015625)"/>
        <path id="MicrosoftYaHei-1b" d="M 3294 1494 
Q 3294 784 2823 350 
Q 2353 -84 1559 -84 
Q 878 -84 544 119 
L 544 744 
Q 1034 425 1544 425 
Q 2050 425 2361 704 
Q 2672 984 2672 1447 
Q 2672 1909 2348 2167 
Q 2025 2425 1434 2425 
Q 978 2425 613 2384 
L 791 4841 
L 3053 4841 
L 3053 4303 
L 1306 4303 
L 1206 2931 
L 1647 2950 
Q 2416 2950 2855 2567 
Q 3294 2184 3294 1494 
z
" transform="scale(0.015625)"/>
        <path id="MicrosoftYaHei-13" d="M 2328 1681 
L 488 1681 
L 488 2153 
L 2328 2153 
L 2328 1681 
z
" transform="scale(0.015625)"/>
        <path id="MicrosoftYaHei-17" d="M 1781 0 
L 1781 4141 
Q 1638 3997 1295 3819 
Q 953 3641 663 3569 
L 663 4169 
Q 1047 4275 1484 4508 
Q 1922 4741 2156 4947 
L 2388 4947 
L 2388 0 
L 1781 0 
z
" transform="scale(0.015625)"/>
       </defs>
       <use xlink:href="#MicrosoftYaHei-18"/>
       <use xlink:href="#MicrosoftYaHei-16" transform="translate(58.640625 0)"/>
       <use xlink:href="#MicrosoftYaHei-18" transform="translate(117.28125 0)"/>
       <use xlink:href="#MicrosoftYaHei-1b" transform="translate(175.921875 0)"/>
       <use xlink:href="#MicrosoftYaHei-13" transform="translate(234.5625 0)"/>
       <use xlink:href="#MicrosoftYaHei-16" transform="translate(277.828125 0)"/>
       <use xlink:href="#MicrosoftYaHei-17" transform="translate(336.46875 0)"/>
      </g>
     </g>
    </g>
    <g id="xtick_2">
     <g id="line2d_3">
      <path d="M 176.081955 399.797718 
L 176.081955 31.760156 
" clip-path="url(#p5eec805173)" style="fill: none; stroke: #d8d8d8; stroke-opacity: 0.75; stroke-width: 0.7; stroke-linecap: square"/>
     </g>
     <g id="line2d_4">
      <g>
       <use xlink:href="#me0ff23c336" x="176.081955" y="399.797718" style="stroke: #000000; stroke-width: 0.8"/>
      </g>
     </g>
     <g id="text_2">
      <!-- 2025-02 -->
      <g transform="translate(142.262944 436.111872) rotate(-35) scale(0.1 -0.1)">
       <use xlink:href="#MicrosoftYaHei-18"/>
       <use xlink:href="#MicrosoftYaHei-16" transform="translate(58.640625 0)"/>
       <use xlink:href="#MicrosoftYaHei-18" transform="translate(117.28125 0)"/>
       <use xlink:href="#MicrosoftYaHei-1b" transform="translate(175.921875 0)"/>
       <use xlink:href="#MicrosoftYaHei-13" transform="translate(234.5625 0)"/>
       <use xlink:href="#MicrosoftYaHei-16" transform="translate(277.828125 0)"/>
       <use xlink:href="#MicrosoftYaHei-18" transform="translate(336.46875 0)"/>
      </g>
     </g>
    </g>
    <g id="xtick_3">
     <g id="line2d_5">
      <path d="M 246.009917 399.797718 
L 246.009917 31.760156 
" clip-path="url(#p5eec805173)" style="fill: none; stroke: #d8d8d8; stroke-opacity: 0.75; stroke-width: 0.7; stroke-linecap: square"/>
     </g>
     <g id="line2d_6">
      <g>
       <use xlink:href="#me0ff23c336" x="246.009917" y="399.797718" style="stroke: #000000; stroke-width: 0.8"/>
      </g>
     </g>
     <g id="text_3">
      <!-- 2025-03 -->
      <g transform="translate(212.190906 436.111872) rotate(-35) scale(0.1 -0.1)">
       <defs>
        <path id="MicrosoftYaHei-19" d="M 447 809 
Q 944 425 1569 425 
Q 2069 425 2361 670 
Q 2653 916 2653 1328 
Q 2653 2247 1338 2247 
L 934 2247 
L 934 2753 
L 1319 2753 
Q 2484 2753 2484 3616 
Q 2484 4413 1594 4413 
Q 1084 4413 634 4069 
L 634 4647 
Q 1109 4922 1744 4922 
Q 2363 4922 2738 4598 
Q 3113 4275 3113 3759 
Q 3113 2809 2144 2538 
L 2144 2525 
Q 2669 2469 2973 2155 
Q 3278 1841 3278 1372 
Q 3278 719 2808 319 
Q 2338 -81 1556 -81 
Q 869 -81 447 175 
L 447 809 
z
" transform="scale(0.015625)"/>
       </defs>
       <use xlink:href="#MicrosoftYaHei-18"/>
       <use xlink:href="#MicrosoftYaHei-16" transform="translate(58.640625 0)"/>
       <use xlink:href="#MicrosoftYaHei-18" transform="translate(117.28125 0)"/>
       <use xlink:href="#MicrosoftYaHei-1b" transform="translate(175.921875 0)"/>
       <use xlink:href="#MicrosoftYaHei-13" transform="translate(234.5625 0)"/>
       <use xlink:href="#MicrosoftYaHei-16" transform="translate(277.828125 0)"/>
       <use xlink:href="#MicrosoftYaHei-19" transform="translate(336.46875 0)"/>
      </g>
     </g>
    </g>
    <g id="xtick_4">
     <g id="line2d_7">
      <path d="M 323.43016 399.797718 
L 323.43016 31.760156 
" clip-path="url(#p5eec805173)" style="fill: none; stroke: #d8d8d8; stroke-opacity: 0.75; stroke-width: 0.7; stroke-linecap: square"/>
     </g>
     <g id="line2d_8">
      <g>
       <use xlink:href="#me0ff23c336" x="323.43016" y="399.797718" style="stroke: #000000; stroke-width: 0.8"/>
      </g>
     </g>
     <g id="text_4">
      <!-- 2025-04 -->
      <g transform="translate(289.611149 436.111872) rotate(-35) scale(0.1 -0.1)">
       <defs>
        <path id="MicrosoftYaHei-1a" d="M 2906 4841 
L 2906 1644 
L 3631 1644 
L 3631 1138 
L 2906 1138 
L 2906 0 
L 2313 0 
L 2313 1138 
L 53 1138 
L 53 1616 
Q 656 2294 1265 3178 
Q 1875 4063 2272 4841 
L 2906 4841 
z
M 741 1644 
L 2313 1644 
L 2313 3950 
Q 1988 3366 1616 2817 
Q 1244 2269 741 1644 
z
" transform="scale(0.015625)"/>
       </defs>
       <use xlink:href="#MicrosoftYaHei-18"/>
       <use xlink:href="#MicrosoftYaHei-16" transform="translate(58.640625 0)"/>
       <use xlink:href="#MicrosoftYaHei-18" transform="translate(117.28125 0)"/>
       <use xlink:href="#MicrosoftYaHei-1b" transform="translate(175.921875 0)"/>
       <use xlink:href="#MicrosoftYaHei-13" transform="translate(234.5625 0)"/>
       <use xlink:href="#MicrosoftYaHei-16" transform="translate(277.828125 0)"/>
       <use xlink:href="#MicrosoftYaHei-1a" transform="translate(336.46875 0)"/>
      </g>
     </g>
    </g>
    <g id="xtick_5">
     <g id="line2d_9">
      <path d="M 398.352976 399.797718 
L 398.352976 31.760156 
" clip-path="url(#p5eec805173)" style="fill: none; stroke: #d8d8d8; stroke-opacity: 0.75; stroke-width: 0.7; stroke-linecap: square"/>
     </g>
     <g id="line2d_10">
      <g>
       <use xlink:href="#me0ff23c336" x="398.352976" y="399.797718" style="stroke: #000000; stroke-width: 0.8"/>
      </g>
     </g>
     <g id="text_5">
      <!-- 2025-05 -->
      <g transform="translate(364.533965 436.111872) rotate(-35) scale(0.1 -0.1)">
       <use xlink:href="#MicrosoftYaHei-18"/>
       <use xlink:href="#MicrosoftYaHei-16" transform="translate(58.640625 0)"/>
       <use xlink:href="#MicrosoftYaHei-18" transform="translate(117.28125 0)"/>
       <use xlink:href="#MicrosoftYaHei-1b" transform="translate(175.921875 0)"/>
       <use xlink:href="#MicrosoftYaHei-13" transform="translate(234.5625 0)"/>
       <use xlink:href="#MicrosoftYaHei-16" transform="translate(277.828125 0)"/>
       <use xlink:href="#MicrosoftYaHei-1b" transform="translate(336.46875 0)"/>
      </g>
     </g>
    </g>
    <g id="xtick_6">
     <g id="line2d_11">
      <path d="M 475.77322 399.797718 
L 475.77322 31.760156 
" clip-path="url(#p5eec805173)" style="fill: none; stroke: #d8d8d8; stroke-opacity: 0.75; stroke-width: 0.7; stroke-linecap: square"/>
     </g>
     <g id="line2d_12">
      <g>
       <use xlink:href="#me0ff23c336" x="475.77322" y="399.797718" style="stroke: #000000; stroke-width: 0.8"/>
      </g>
     </g>
     <g id="text_6">
      <!-- 2025-06 -->
      <g transform="translate(441.954209 436.111872) rotate(-35) scale(0.1 -0.1)">
       <defs>
        <path id="MicrosoftYaHei-1c" d="M 3181 4219 
Q 2803 4413 2391 4413 
Q 1763 4413 1381 3866 
Q 1000 3319 994 2372 
L 1009 2372 
Q 1353 3038 2106 3038 
Q 2734 3038 3109 2628 
Q 3484 2219 3484 1541 
Q 3484 831 3051 375 
Q 2619 -81 1947 -81 
Q 1209 -81 789 495 
Q 369 1072 369 2131 
Q 369 3413 920 4167 
Q 1472 4922 2372 4922 
Q 2888 4922 3181 4781 
L 3181 4219 
z
M 1031 1584 
Q 1031 1106 1286 765 
Q 1541 425 1963 425 
Q 2363 425 2613 719 
Q 2863 1013 2863 1475 
Q 2863 1975 2627 2253 
Q 2391 2531 1956 2531 
Q 1544 2531 1287 2250 
Q 1031 1969 1031 1584 
z
" transform="scale(0.015625)"/>
       </defs>
       <use xlink:href="#MicrosoftYaHei-18"/>
       <use xlink:href="#MicrosoftYaHei-16" transform="translate(58.640625 0)"/>
       <use xlink:href="#MicrosoftYaHei-18" transform="translate(117.28125 0)"/>
       <use xlink:href="#MicrosoftYaHei-1b" transform="translate(175.921875 0)"/>
       <use xlink:href="#MicrosoftYaHei-13" transform="translate(234.5625 0)"/>
       <use xlink:href="#MicrosoftYaHei-16" transform="translate(277.828125 0)"/>
       <use xlink:href="#MicrosoftYaHei-1c" transform="translate(336.46875 0)"/>
      </g>
     </g>
    </g>
    <g id="xtick_7">
     <g id="line2d_13">
      <path d="M 550.696036 399.797718 
L 550.696036 31.760156 
" clip-path="url(#p5eec805173)" style="fill: none; stroke: #d8d8d8; stroke-opacity: 0.75; stroke-width: 0.7; stroke-linecap: square"/>
     </g>
     <g id="line2d_14">
      <g>
       <use xlink:href="#me0ff23c336" x="550.696036" y="399.797718" style="stroke: #000000; stroke-width: 0.8"/>
      </g>
     </g>
     <g id="text_7">
      <!-- 2025-07 -->
      <g transform="translate(516.877025 436.111872) rotate(-35) scale(0.1 -0.1)">
       <defs>
        <path id="MicrosoftYaHei-1d" d="M 3422 4463 
Q 2659 3131 2223 1998 
Q 1788 866 1684 0 
L 1047 0 
Q 1163 853 1594 1947 
Q 2025 3041 2747 4300 
L 347 4300 
L 347 4841 
L 3422 4841 
L 3422 4463 
z
" transform="scale(0.015625)"/>
       </defs>
       <use xlink:href="#MicrosoftYaHei-18"/>
       <use xlink:href="#MicrosoftYaHei-16" transform="translate(58.640625 0)"/>
       <use xlink:href="#MicrosoftYaHei-18" transform="translate(117.28125 0)"/>
       <use xlink:href="#MicrosoftYaHei-1b" transform="translate(175.921875 0)"/>
       <use xlink:href="#MicrosoftYaHei-13" transform="translate(234.5625 0)"/>
       <use xlink:href="#MicrosoftYaHei-16" transform="translate(277.828125 0)"/>
       <use xlink:href="#MicrosoftYaHei-1d" transform="translate(336.46875 0)"/>
      </g>
     </g>
    </g>
    <g id="xtick_8">
     <g id="line2d_15">
      <path d="M 628.116279 399.797718 
L 628.116279 31.760156 
" clip-path="url(#p5eec805173)" style="fill: none; stroke: #d8d8d8; stroke-opacity: 0.75; stroke-width: 0.7; stroke-linecap: square"/>
     </g>
     <g id="line2d_16">
      <g>
       <use xlink:href="#me0ff23c336" x="628.116279" y="399.797718" style="stroke: #000000; stroke-width: 0.8"/>
      </g>
     </g>
     <g id="text_8">
      <!-- 2025-08 -->
      <g transform="translate(594.297268 436.111872) rotate(-35) scale(0.1 -0.1)">
       <defs>
        <path id="MicrosoftYaHei-1e" d="M 306 1350 
Q 306 1769 556 2122 
Q 806 2475 1200 2625 
Q 884 2803 700 3081 
Q 516 3359 516 3684 
Q 516 4028 692 4312 
Q 869 4597 1183 4759 
Q 1497 4922 1875 4922 
Q 2256 4922 2572 4761 
Q 2888 4600 3063 4315 
Q 3238 4031 3238 3684 
Q 3238 3366 3058 3086 
Q 2878 2806 2559 2625 
Q 2953 2472 3200 2119 
Q 3447 1766 3447 1350 
Q 3447 938 3250 611 
Q 3053 284 2690 103 
Q 2328 -78 1875 -78 
Q 1425 -78 1065 103 
Q 706 284 506 612 
Q 306 941 306 1350 
z
M 906 1378 
Q 906 947 1172 687 
Q 1438 428 1878 428 
Q 2309 428 2582 692 
Q 2856 956 2856 1378 
Q 2856 1778 2579 2051 
Q 2303 2325 1878 2325 
Q 1456 2325 1181 2058 
Q 906 1791 906 1378 
z
M 1081 3634 
Q 1081 3309 1312 3076 
Q 1544 2844 1878 2844 
Q 2206 2844 2445 3078 
Q 2684 3313 2684 3634 
Q 2684 3963 2454 4191 
Q 2225 4419 1878 4419 
Q 1534 4419 1307 4195 
Q 1081 3972 1081 3634 
z
" transform="scale(0.015625)"/>
       </defs>
       <use xlink:href="#MicrosoftYaHei-18"/>
       <use xlink:href="#MicrosoftYaHei-16" transform="translate(58.640625 0)"/>
       <use xlink:href="#MicrosoftYaHei-18" transform="translate(117.28125 0)"/>
       <use xlink:href="#MicrosoftYaHei-1b" transform="translate(175.921875 0)"/>
       <use xlink:href="#MicrosoftYaHei-13" transform="translate(234.5625 0)"/>
       <use xlink:href="#MicrosoftYaHei-16" transform="translate(277.828125 0)"/>
       <use xlink:href="#MicrosoftYaHei-1e" transform="translate(336.46875 0)"/>
      </g>
     </g>
    </g>
    <g id="xtick_9">
     <g id="line2d_17">
      <path d="M 705.536523 399.797718 
L 705.536523 31.760156 
" clip-path="url(#p5eec805173)" style="fill: none; stroke: #d8d8d8; stroke-opacity: 0.75; stroke-width: 0.7; stroke-linecap: square"/>
     </g>
     <g id="line2d_18">
      <g>
       <use xlink:href="#me0ff23c336" x="705.536523" y="399.797718" style="stroke: #000000; stroke-width: 0.8"/>
      </g>
     </g>
     <g id="text_9">
      <!-- 2025-09 -->
      <g transform="translate(671.717512 436.111872) rotate(-35) scale(0.1 -0.1)">
       <defs>
        <path id="MicrosoftYaHei-1f" d="M 578 656 
Q 978 425 1441 425 
Q 2091 425 2448 937 
Q 2806 1450 2806 2394 
Q 2800 2388 2794 2394 
Q 2475 1788 1722 1788 
Q 1113 1788 713 2206 
Q 313 2625 313 3294 
Q 313 4006 750 4464 
Q 1188 4922 1884 4922 
Q 2606 4922 3012 4355 
Q 3419 3788 3419 2703 
Q 3419 1363 2894 641 
Q 2369 -81 1441 -81 
Q 931 -81 578 84 
L 578 656 
z
M 931 3372 
Q 931 2884 1181 2598 
Q 1431 2313 1872 2313 
Q 2253 2313 2512 2573 
Q 2772 2834 2772 3206 
Q 2772 3728 2514 4070 
Q 2256 4413 1834 4413 
Q 1444 4413 1187 4116 
Q 931 3819 931 3372 
z
" transform="scale(0.015625)"/>
       </defs>
       <use xlink:href="#MicrosoftYaHei-18"/>
       <use xlink:href="#MicrosoftYaHei-16" transform="translate(58.640625 0)"/>
       <use xlink:href="#MicrosoftYaHei-18" transform="translate(117.28125 0)"/>
       <use xlink:href="#MicrosoftYaHei-1b" transform="translate(175.921875 0)"/>
       <use xlink:href="#MicrosoftYaHei-13" transform="translate(234.5625 0)"/>
       <use xlink:href="#MicrosoftYaHei-16" transform="translate(277.828125 0)"/>
       <use xlink:href="#MicrosoftYaHei-1f" transform="translate(336.46875 0)"/>
      </g>
     </g>
    </g>
    <g id="xtick_10">
     <g id="line2d_19">
      <path d="M 780.459339 399.797718 
L 780.459339 31.760156 
" clip-path="url(#p5eec805173)" style="fill: none; stroke: #d8d8d8; stroke-opacity: 0.75; stroke-width: 0.7; stroke-linecap: square"/>
     </g>
     <g id="line2d_20">
      <g>
       <use xlink:href="#me0ff23c336" x="780.459339" y="399.797718" style="stroke: #000000; stroke-width: 0.8"/>
      </g>
     </g>
     <g id="text_10">
      <!-- 2025-10 -->
      <g transform="translate(746.640328 436.111872) rotate(-35) scale(0.1 -0.1)">
       <use xlink:href="#MicrosoftYaHei-18"/>
       <use xlink:href="#MicrosoftYaHei-16" transform="translate(58.640625 0)"/>
       <use xlink:href="#MicrosoftYaHei-18" transform="translate(117.28125 0)"/>
       <use xlink:href="#MicrosoftYaHei-1b" transform="translate(175.921875 0)"/>
       <use xlink:href="#MicrosoftYaHei-13" transform="translate(234.5625 0)"/>
       <use xlink:href="#MicrosoftYaHei-17" transform="translate(277.828125 0)"/>
       <use xlink:href="#MicrosoftYaHei-16" transform="translate(336.46875 0)"/>
      </g>
     </g>
    </g>
    <g id="xtick_11">
     <g id="line2d_21">
      <path d="M 857.879582 399.797718 
L 857.879582 31.760156 
" clip-path="url(#p5eec805173)" style="fill: none; stroke: #d8d8d8; stroke-opacity: 0.75; stroke-width: 0.7; stroke-linecap: square"/>
     </g>
     <g id="line2d_22">
      <g>
       <use xlink:href="#me0ff23c336" x="857.879582" y="399.797718" style="stroke: #000000; stroke-width: 0.8"/>
      </g>
     </g>
     <g id="text_11">
      <!-- 2025-11 -->
      <g transform="translate(824.060571 436.111872) rotate(-35) scale(0.1 -0.1)">
       <use xlink:href="#MicrosoftYaHei-18"/>
       <use xlink:href="#MicrosoftYaHei-16" transform="translate(58.640625 0)"/>
       <use xlink:href="#MicrosoftYaHei-18" transform="translate(117.28125 0)"/>
       <use xlink:href="#MicrosoftYaHei-1b" transform="translate(175.921875 0)"/>
       <use xlink:href="#MicrosoftYaHei-13" transform="translate(234.5625 0)"/>
       <use xlink:href="#MicrosoftYaHei-17" transform="translate(277.828125 0)"/>
       <use xlink:href="#MicrosoftYaHei-17" transform="translate(336.46875 0)"/>
      </g>
     </g>
    </g>
    <g id="xtick_12">
     <g id="line2d_23">
      <path d="M 932.802399 399.797718 
L 932.802399 31.760156 
" clip-path="url(#p5eec805173)" style="fill: none; stroke: #d8d8d8; stroke-opacity: 0.75; stroke-width: 0.7; stroke-linecap: square"/>
     </g>
     <g id="line2d_24">
      <g>
       <use xlink:href="#me0ff23c336" x="932.802399" y="399.797718" style="stroke: #000000; stroke-width: 0.8"/>
      </g>
     </g>
     <g id="text_12">
      <!-- 2025-12 -->
      <g transform="translate(898.983388 436.111872) rotate(-35) scale(0.1 -0.1)">
       <use xlink:href="#MicrosoftYaHei-18"/>
       <use xlink:href="#MicrosoftYaHei-16" transform="translate(58.640625 0)"/>
       <use xlink:href="#MicrosoftYaHei-18" transform="translate(117.28125 0)"/>
       <use xlink:href="#MicrosoftYaHei-1b" transform="translate(175.921875 0)"/>
       <use xlink:href="#MicrosoftYaHei-13" transform="translate(234.5625 0)"/>
       <use xlink:href="#MicrosoftYaHei-17" transform="translate(277.828125 0)"/>
       <use xlink:href="#MicrosoftYaHei-18" transform="translate(336.46875 0)"/>
      </g>
     </g>
    </g>
    <g id="xtick_13">
     <g id="line2d_25">
      <path d="M 1010.222642 399.797718 
L 1010.222642 31.760156 
" clip-path="url(#p5eec805173)" style="fill: none; stroke: #d8d8d8; stroke-opacity: 0.75; stroke-width: 0.7; stroke-linecap: square"/>
     </g>
     <g id="line2d_26">
      <g>
       <use xlink:href="#me0ff23c336" x="1010.222642" y="399.797718" style="stroke: #000000; stroke-width: 0.8"/>
      </g>
     </g>
     <g id="text_13">
      <!-- 2026-01 -->
      <g transform="translate(976.403631 436.111872) rotate(-35) scale(0.1 -0.1)">
       <use xlink:href="#MicrosoftYaHei-18"/>
       <use xlink:href="#MicrosoftYaHei-16" transform="translate(58.640625 0)"/>
       <use xlink:href="#MicrosoftYaHei-18" transform="translate(117.28125 0)"/>
       <use xlink:href="#MicrosoftYaHei-1c" transform="translate(175.921875 0)"/>
       <use xlink:href="#MicrosoftYaHei-13" transform="translate(234.5625 0)"/>
       <use xlink:href="#MicrosoftYaHei-16" transform="translate(277.828125 0)"/>
       <use xlink:href="#MicrosoftYaHei-17" transform="translate(336.46875 0)"/>
      </g>
     </g>
    </g>
    <g id="text_14">
     <!-- 日期 -->
     <g transform="translate(549.437031 450.376813) scale(0.1 -0.1)">
      <defs>
       <path id="MicrosoftYaHei-799" d="M 975 4909 
L 5431 4909 
L 5431 -766 
L 4900 -766 
L 4900 -322 
L 1506 -322 
L 1506 -766 
L 975 -766 
L 975 4909 
z
M 1506 2103 
L 1506 134 
L 4900 134 
L 4900 2103 
L 1506 2103 
z
M 1506 4441 
L 1506 2572 
L 4900 2572 
L 4900 4441 
L 1506 4441 
z
" transform="scale(0.015625)"/>
       <path id="MicrosoftYaHei-7ca" d="M 3769 5066 
L 5981 5066 
L 5981 -3 
Q 5981 -741 5281 -741 
Q 4931 -741 4594 -722 
Q 4569 -516 4519 -241 
Q 4975 -284 5175 -284 
Q 5519 -284 5519 59 
L 5519 1372 
L 4181 1372 
Q 4113 3 3350 -903 
Q 3181 -728 2975 -553 
Q 3481 28 3619 653 
Q 3769 1253 3769 2741 
L 3769 5066 
z
M 125 1141 
L 713 1141 
L 713 4028 
L 200 4028 
L 200 4453 
L 713 4453 
L 713 5216 
L 1175 5216 
L 1175 4453 
L 2475 4453 
L 2475 5241 
L 2938 5241 
L 2938 4453 
L 3444 4453 
L 3444 4028 
L 2938 4028 
L 2938 1141 
L 3438 1141 
L 3438 716 
L 125 716 
L 125 1141 
z
M 4209 1784 
L 5519 1784 
L 5519 3009 
L 4231 3009 
Q 4238 2203 4209 1784 
z
M 5519 4641 
L 4231 4641 
L 4231 3422 
L 5519 3422 
L 5519 4641 
z
M 1175 1141 
L 2475 1141 
L 2475 1841 
L 1175 1841 
L 1175 1141 
z
M 1175 2241 
L 2475 2241 
L 2475 2934 
L 1175 2934 
L 1175 2241 
z
M 1175 3334 
L 2475 3334 
L 2475 4028 
L 1175 4028 
L 1175 3334 
z
M 1175 597 
L 1556 297 
Q 925 -384 406 -847 
Q 275 -697 75 -516 
Q 669 -9 1175 597 
z
M 1994 303 
L 2294 609 
Q 2731 284 3119 -47 
L 2788 -403 
Q 2438 -53 1994 303 
z
" transform="scale(0.015625)"/>
      </defs>
      <use xlink:href="#MicrosoftYaHei-799"/>
      <use xlink:href="#MicrosoftYaHei-7ca" transform="translate(100 0)"/>
     </g>
    </g>
   </g>
   <g id="matplotlib.axis_2">
    <g id="ytick_1">
     <g id="line2d_27">
      <path d="M 52.58418 392.743664 
L 1066.289883 392.743664 
" clip-path="url(#p5eec805173)" style="fill: none; stroke: #d8d8d8; stroke-opacity: 0.75; stroke-width: 0.7; stroke-linecap: square"/>
     </g>
     <g id="line2d_28">
      <defs>
       <path id="md872110416" d="M 0 0 
L -3.5 0 
" style="stroke: #000000; stroke-width: 0.8"/>
      </defs>
      <g>
       <use xlink:href="#md872110416" x="52.58418" y="392.743664" style="stroke: #000000; stroke-width: 0.8"/>
      </g>
     </g>
     <g id="text_15">
      <!-- 4000 -->
      <g transform="translate(22.12793 396.803723) scale(0.1 -0.1)">
       <use xlink:href="#MicrosoftYaHei-1a"/>
       <use xlink:href="#MicrosoftYaHei-16" transform="translate(58.640625 0)"/>
       <use xlink:href="#MicrosoftYaHei-16" transform="translate(117.28125 0)"/>
       <use xlink:href="#MicrosoftYaHei-16" transform="translate(175.921875 0)"/>
      </g>
     </g>
    </g>
    <g id="ytick_2">
     <g id="line2d_29">
      <path d="M 52.58418 323.264844 
L 1066.289883 323.264844 
" clip-path="url(#p5eec805173)" style="fill: none; stroke: #d8d8d8; stroke-opacity: 0.75; stroke-width: 0.7; stroke-linecap: square"/>
     </g>
     <g id="line2d_30">
      <g>
       <use xlink:href="#md872110416" x="52.58418" y="323.264844" style="stroke: #000000; stroke-width: 0.8"/>
      </g>
     </g>
     <g id="text_16">
      <!-- 5000 -->
      <g transform="translate(22.12793 327.324902) scale(0.1 -0.1)">
       <use xlink:href="#MicrosoftYaHei-1b"/>
       <use xlink:href="#MicrosoftYaHei-16" transform="translate(58.640625 0)"/>
       <use xlink:href="#MicrosoftYaHei-16" transform="translate(117.28125 0)"/>
       <use xlink:href="#MicrosoftYaHei-16" transform="translate(175.921875 0)"/>
      </g>
     </g>
    </g>
    <g id="ytick_3">
     <g id="line2d_31">
      <path d="M 52.58418 253.786023 
L 1066.289883 253.786023 
" clip-path="url(#p5eec805173)" style="fill: none; stroke: #d8d8d8; stroke-opacity: 0.75; stroke-width: 0.7; stroke-linecap: square"/>
     </g>
     <g id="line2d_32">
      <g>
       <use xlink:href="#md872110416" x="52.58418" y="253.786023" style="stroke: #000000; stroke-width: 0.8"/>
      </g>
     </g>
     <g id="text_17">
      <!-- 6000 -->
      <g transform="translate(22.12793 257.846082) scale(0.1 -0.1)">
       <use xlink:href="#MicrosoftYaHei-1c"/>
       <use xlink:href="#MicrosoftYaHei-16" transform="translate(58.640625 0)"/>
       <use xlink:href="#MicrosoftYaHei-16" transform="translate(117.28125 0)"/>
       <use xlink:href="#MicrosoftYaHei-16" transform="translate(175.921875 0)"/>
      </g>
     </g>
    </g>
    <g id="ytick_4">
     <g id="line2d_33">
      <path d="M 52.58418 184.307203 
L 1066.289883 184.307203 
" clip-path="url(#p5eec805173)" style="fill: none; stroke: #d8d8d8; stroke-opacity: 0.75; stroke-width: 0.7; stroke-linecap: square"/>
     </g>
     <g id="line2d_34">
      <g>
       <use xlink:href="#md872110416" x="52.58418" y="184.307203" style="stroke: #000000; stroke-width: 0.8"/>
      </g>
     </g>
     <g id="text_18">
      <!-- 7000 -->
      <g transform="translate(22.12793 188.367262) scale(0.1 -0.1)">
       <use xlink:href="#MicrosoftYaHei-1d"/>
       <use xlink:href="#MicrosoftYaHei-16" transform="translate(58.640625 0)"/>
       <use xlink:href="#MicrosoftYaHei-16" transform="translate(117.28125 0)"/>
       <use xlink:href="#MicrosoftYaHei-16" transform="translate(175.921875 0)"/>
      </g>
     </g>
    </g>
    <g id="ytick_5">
     <g id="line2d_35">
      <path d="M 52.58418 114.828383 
L 1066.289883 114.828383 
" clip-path="url(#p5eec805173)" style="fill: none; stroke: #d8d8d8; stroke-opacity: 0.75; stroke-width: 0.7; stroke-linecap: square"/>
     </g>
     <g id="line2d_36">
      <g>
       <use xlink:href="#md872110416" x="52.58418" y="114.828383" style="stroke: #000000; stroke-width: 0.8"/>
      </g>
     </g>
     <g id="text_19">
      <!-- 8000 -->
      <g transform="translate(22.12793 118.888441) scale(0.1 -0.1)">
       <use xlink:href="#MicrosoftYaHei-1e"/>
       <use xlink:href="#MicrosoftYaHei-16" transform="translate(58.640625 0)"/>
       <use xlink:href="#MicrosoftYaHei-16" transform="translate(117.28125 0)"/>
       <use xlink:href="#MicrosoftYaHei-16" transform="translate(175.921875 0)"/>
      </g>
     </g>
    </g>
    <g id="ytick_6">
     <g id="line2d_37">
      <path d="M 52.58418 45.349562 
L 1066.289883 45.349562 
" clip-path="url(#p5eec805173)" style="fill: none; stroke: #d8d8d8; stroke-opacity: 0.75; stroke-width: 0.7; stroke-linecap: square"/>
     </g>
     <g id="line2d_38">
      <g>
       <use xlink:href="#md872110416" x="52.58418" y="45.349562" style="stroke: #000000; stroke-width: 0.8"/>
      </g>
     </g>
     <g id="text_20">
      <!-- 9000 -->
      <g transform="translate(22.12793 49.409621) scale(0.1 -0.1)">
       <use xlink:href="#MicrosoftYaHei-1f"/>
       <use xlink:href="#MicrosoftYaHei-16" transform="translate(58.640625 0)"/>
       <use xlink:href="#MicrosoftYaHei-16" transform="translate(117.28125 0)"/>
       <use xlink:href="#MicrosoftYaHei-16" transform="translate(175.921875 0)"/>
      </g>
     </g>
    </g>
    <g id="text_21">
     <!-- 光伏实际功率（kW） -->
     <g transform="translate(15.59375 263.589094) rotate(-90) scale(0.1 -0.1)">
      <defs>
       <path id="MicrosoftYaHei-4b0" d="M 169 2691 
L 2931 2691 
L 2931 5309 
L 3444 5309 
L 3444 2691 
L 6256 2691 
L 6256 2228 
L 4206 2228 
L 4206 216 
Q 4206 -22 4269 -116 
Q 4356 -241 4638 -241 
L 5256 -241 
Q 5706 -241 5750 91 
Q 5794 428 5819 984 
Q 6056 884 6344 797 
Q 6288 153 6231 -122 
Q 6175 -441 5963 -559 
Q 5763 -678 5281 -678 
L 4538 -678 
Q 4056 -678 3863 -466 
Q 3700 -284 3700 141 
L 3700 2228 
L 2491 2228 
Q 2466 931 1988 266 
Q 1469 -459 369 -841 
Q 244 -647 50 -397 
Q 1150 -16 1569 603 
Q 1966 1134 1991 2228 
L 169 2228 
L 169 2691 
z
M 4094 3397 
Q 4813 4084 5369 4828 
L 5825 4503 
Q 5200 3766 4481 3059 
L 4094 3397 
z
M 619 4528 
L 1000 4828 
Q 1631 4134 2213 3434 
L 1756 3084 
Q 1188 3866 619 4528 
z
" transform="scale(0.015625)"/>
       <path id="MicrosoftYaHei-465" d="M 1844 3416 
L 3691 3416 
Q 3719 4347 3719 5316 
L 4225 5316 
Q 4219 4578 4197 3416 
L 6269 3416 
L 6269 2959 
L 4209 2959 
Q 4597 781 6313 -316 
Q 6063 -584 5888 -791 
Q 4441 331 4000 2022 
Q 3625 378 1956 -847 
Q 1806 -641 1613 -403 
Q 3503 894 3669 2959 
L 1844 2959 
L 1844 3416 
z
M 88 2328 
Q 1056 3634 1556 5284 
L 2063 5116 
Q 1753 4247 1388 3516 
L 1388 -809 
L 913 -809 
L 913 2659 
Q 616 2178 288 1772 
Q 194 2041 88 2328 
z
M 5006 5028 
Q 5519 4522 5913 4116 
Q 5719 3947 5531 3766 
Q 5106 4272 4675 4728 
L 5006 5028 
z
" transform="scale(0.015625)"/>
       <path id="MicrosoftYaHei-618" d="M 113 -397 
Q 2419 34 3081 972 
L 213 972 
L 213 1434 
L 3313 1434 
Q 3525 2084 3506 3703 
L 4031 3703 
Q 4031 2097 3856 1434 
L 6225 1434 
L 6225 972 
L 3681 972 
Q 3631 872 3563 759 
Q 4900 197 6181 -403 
L 5906 -878 
Q 4569 -197 3263 391 
Q 2413 -441 413 -891 
Q 269 -616 113 -397 
z
M 331 4422 
L 3194 4422 
Q 3038 4703 2775 5078 
L 3231 5334 
Q 3438 5059 3731 4609 
L 3388 4422 
L 6063 4422 
L 6063 3303 
L 5563 3303 
L 5563 3959 
L 831 3959 
L 831 3303 
L 331 3303 
L 331 4422 
z
M 1100 2734 
Q 1819 2409 2450 2053 
L 2181 1622 
Q 1556 2003 863 2334 
L 1100 2734 
z
M 1663 3691 
Q 2388 3341 2981 2984 
L 2700 2559 
Q 2119 2934 1419 3322 
L 1663 3691 
z
" transform="scale(0.015625)"/>
       <path id="MicrosoftYaHei-b8e" d="M 2256 1678 
Q 2419 503 1656 334 
Q 1413 284 1025 328 
Q 975 584 888 834 
Q 1219 753 1469 784 
Q 1906 834 1763 1678 
Q 1675 2166 1169 2828 
Q 1425 3591 1681 4491 
L 850 4491 
L 850 -841 
L 375 -841 
L 375 4953 
L 2200 4953 
L 2200 4503 
Q 1913 3572 1694 2884 
Q 2194 2203 2256 1678 
z
M 2150 3228 
L 6225 3228 
L 6225 2766 
L 4425 2766 
L 4425 16 
Q 4425 -747 3688 -747 
Q 3394 -747 2938 -741 
Q 2881 -403 2838 -209 
Q 3313 -259 3575 -259 
Q 3938 -259 3938 122 
L 3938 2766 
L 2150 2766 
L 2150 3228 
z
M 2488 4803 
L 5888 4803 
L 5888 4341 
L 2488 4341 
L 2488 4803 
z
M 2969 2097 
L 3431 1928 
Q 2988 747 2481 -222 
Q 2206 -72 2038 -3 
Q 2594 1003 2969 2097 
z
M 4900 1872 
L 5331 2084 
Q 5844 1041 6300 53 
L 5844 -166 
Q 5494 641 4900 1872 
z
" transform="scale(0.015625)"/>
       <path id="MicrosoftYaHei-505" d="M 2500 3978 
L 3475 3978 
Q 3488 4538 3494 5278 
L 4000 5278 
Q 3991 4531 3975 3978 
L 5969 3978 
Q 5913 1791 5844 291 
Q 5775 -691 4956 -709 
Q 4413 -716 3756 -684 
Q 3713 -397 3656 -122 
Q 4306 -197 4844 -191 
Q 5313 -178 5344 378 
Q 5425 1847 5450 3497 
L 3963 3497 
Q 3950 3003 3931 2734 
Q 3813 266 1938 -847 
Q 1800 -653 1575 -422 
Q 3325 553 3431 2772 
Q 3450 3063 3463 3497 
L 2500 3497 
L 2500 3978 
z
M 81 822 
Q 619 941 1119 1056 
L 1119 4134 
L 169 4134 
L 169 4622 
L 2675 4622 
L 2675 4134 
L 1625 4134 
L 1625 1178 
Q 2166 1313 2656 1447 
Q 2669 1122 2700 947 
Q 1594 672 225 291 
L 81 822 
z
" transform="scale(0.015625)"/>
       <path id="MicrosoftYaHei-8e4" d="M 2525 2009 
Q 2622 2016 3928 2081 
Q 3772 2300 3625 2491 
L 3963 2703 
Q 4413 2203 4794 1653 
L 4394 1403 
Q 4284 1569 4178 1725 
Q 2991 1659 2213 1597 
Q 2075 1584 1881 1541 
L 1725 1966 
Q 1913 2028 2006 2084 
Q 2534 2441 3050 2913 
Q 2597 2894 2275 2866 
Q 2144 2847 1988 2809 
L 1800 3191 
Q 1956 3247 2088 3366 
Q 2509 3722 2875 4228 
L 231 4228 
L 231 4666 
L 3031 4666 
Q 2878 4944 2744 5153 
L 3194 5372 
Q 3438 5000 3616 4666 
L 6175 4666 
L 6175 4228 
L 3053 4228 
L 3350 4072 
Q 2844 3553 2494 3247 
Q 2850 3256 3425 3269 
Q 3675 3519 3925 3797 
L 4356 3547 
Q 3363 2603 2525 2009 
z
M 144 991 
L 2994 991 
L 2994 1541 
L 3488 1541 
L 3488 991 
L 6275 991 
L 6275 553 
L 3488 553 
L 3488 -853 
L 2994 -853 
L 2994 553 
L 144 553 
L 144 991 
z
M 1719 2672 
L 1944 2303 
Q 1200 1866 425 1409 
L 163 1828 
Q 813 2134 1719 2672 
z
M 4856 2678 
Q 5750 2172 6250 1816 
L 5975 1409 
Q 5331 1909 4600 2341 
L 4856 2678 
z
M 5994 3591 
Q 5519 3178 4963 2809 
L 4644 3141 
Q 5244 3534 5638 3928 
L 5994 3591 
z
M 363 3634 
L 681 3941 
Q 1200 3528 1588 3159 
L 1238 2816 
Q 875 3197 363 3634 
z
" transform="scale(0.015625)"/>
       <path id="MicrosoftYaHei-367" d="M 5288 -1100 
Q 4172 119 4172 1850 
Q 4172 3603 5288 4838 
L 5825 4838 
Q 4716 3572 4716 1856 
Q 4716 166 5819 -1100 
L 5288 -1100 
z
" transform="scale(0.015625)"/>
       <path id="MicrosoftYaHei-51" d="M 3484 0 
L 2650 0 
L 1172 1666 
L 1159 1666 
L 1159 0 
L 547 0 
L 547 5116 
L 1159 5116 
L 1159 1872 
L 1172 1872 
L 2575 3456 
L 3363 3456 
L 1800 1794 
L 3484 0 
z
" transform="scale(0.015625)"/>
       <path id="MicrosoftYaHei-3d" d="M 6431 4841 
L 5075 0 
L 4347 0 
L 3372 3488 
Q 3306 3725 3294 3988 
L 3281 3988 
Q 3263 3728 3194 3494 
L 2209 0 
L 1488 0 
L 84 4841 
L 775 4841 
L 1763 1184 
Q 1828 938 1841 688 
L 1859 688 
Q 1875 875 1963 1184 
L 3009 4841 
L 3625 4841 
L 4625 1156 
Q 4675 975 4706 694 
L 4719 694 
Q 4734 897 4809 1169 
L 5759 4841 
L 6431 4841 
z
" transform="scale(0.015625)"/>
       <path id="MicrosoftYaHei-368" d="M 1113 -1100 
L 575 -1100 
Q 1684 163 1684 1888 
Q 1684 3581 581 4838 
L 1113 4838 
Q 2222 3628 2222 1888 
Q 2222 128 1113 -1100 
z
" transform="scale(0.015625)"/>
      </defs>
      <use xlink:href="#MicrosoftYaHei-4b0"/>
      <use xlink:href="#MicrosoftYaHei-465" transform="translate(100 0)"/>
      <use xlink:href="#MicrosoftYaHei-618" transform="translate(200 0)"/>
      <use xlink:href="#MicrosoftYaHei-b8e" transform="translate(300 0)"/>
      <use xlink:href="#MicrosoftYaHei-505" transform="translate(400 0)"/>
      <use xlink:href="#MicrosoftYaHei-8e4" transform="translate(500 0)"/>
      <use xlink:href="#MicrosoftYaHei-367" transform="translate(600 0)"/>
      <use xlink:href="#MicrosoftYaHei-51" transform="translate(700 0)"/>
      <use xlink:href="#MicrosoftYaHei-3d" transform="translate(754.4375 0)"/>
      <use xlink:href="#MicrosoftYaHei-368" transform="translate(856.203125 0)"/>
     </g>
    </g>
   </g>
   <g id="line2d_39">
    <path d="M 98.661712 359.489364 
L 101.159139 337.754652 
L 103.656566 332.262351 
L 106.153993 334.661976 
L 108.65142 346.363078 
L 111.148848 339.203285 
L 113.646275 366.9566 
L 116.143702 334.633316 
L 118.641129 364.577819 
L 121.138557 371.852251 
L 123.635984 344.502782 
L 126.133411 347.34794 
L 128.630838 331.91322 
L 131.128265 343.218292 
L 133.625693 363.022362 
L 136.12312 298.253337 
L 138.620547 338.161103 
L 141.117974 324.659631 
L 143.615401 354.843836 
L 146.112829 328.424515 
L 148.610256 288.214516 
L 151.107683 369.306721 
L 153.60511 340.331447 
L 156.102537 326.861241 
L 158.599965 287.946154 
L 161.097392 335.071032 
L 163.594819 309.394266 
L 166.092246 323.4507 
L 168.589673 267.08427 
L 171.087101 305.517348 
L 173.584528 275.809941 
L 176.081955 305.816975 
L 178.579382 275.046542 
L 181.076809 301.30172 
L 183.574237 329.159253 
L 186.071664 287.224443 
L 188.569091 306.929505 
L 191.066518 247.668413 
L 193.563945 326.915956 
L 196.061373 312.895998 
L 198.5588 293.381135 
L 201.056227 252.199301 
L 203.553654 281.812911 
L 206.051082 262.073978 
L 208.548509 247.76221 
L 211.045936 256.589494 
L 213.543363 259.914055 
L 216.04079 217.684828 
L 218.538218 247.074369 
L 221.035645 260.669637 
L 223.533072 226.110872 
L 226.030499 236.905275 
L 228.527926 262.774846 
L 231.025354 262.496062 
L 233.522781 206.278143 
L 236.020208 210.394763 
L 238.517635 254.705749 
L 241.015062 234.21384 
L 243.51249 249.549552 
L 246.009917 258.848424 
L 248.507344 323.531469 
L 251.004771 257.847929 
L 253.502198 250.85228 
L 255.999626 275.528552 
L 258.497053 257.418029 
L 260.99448 287.787221 
L 263.491907 248.62201 
L 265.989334 249.315061 
L 268.486762 254.103889 
L 270.984189 220.47006 
L 273.481616 229.972158 
L 275.979043 238.747333 
L 278.476471 220.767082 
L 280.973898 230.704291 
L 283.471325 251.946572 
L 285.968752 185.233877 
L 288.466179 201.885344 
L 290.963607 205.624174 
L 293.461034 198.206441 
L 295.958461 167.157225 
L 298.455888 233.304536 
L 300.953315 154.66667 
L 303.450743 209.868461 
L 305.94817 162.423111 
L 308.445597 179.465398 
L 310.943024 204.879013 
L 313.440451 176.701009 
L 315.937879 110.819455 
L 318.435306 169.496924 
L 320.932733 240.315817 
L 323.43016 190.747021 
L 325.927587 181.171971 
L 328.425015 221.040655 
L 330.922442 118.390909 
L 333.419869 182.563285 
L 335.917296 180.398151 
L 338.414723 186.560054 
L 340.912151 160.878076 
L 343.409578 225.962361 
L 345.907005 152.178459 
L 348.404432 106.13224 
L 350.90186 211.822553 
L 353.399287 169.838239 
L 355.896714 159.395572 
L 358.394141 218.23979 
L 360.891568 182.912416 
L 363.388996 174.13203 
L 365.886423 98.81612 
L 368.38385 150.97995 
L 370.881277 170.031042 
L 373.378704 130.654789 
L 375.876132 154.708357 
L 378.373559 174.298779 
L 380.870986 111.872059 
L 383.368413 133.97414 
L 385.86584 161.847306 
L 388.363268 161.584155 
L 390.860695 221.921299 
L 393.358122 116.429001 
L 395.855549 120.097483 
L 398.352976 103.518968 
L 400.850404 185.200006 
L 403.347831 195.353467 
L 405.845258 132.572405 
L 408.342685 169.210324 
L 410.840112 140.847332 
L 413.33754 165.317773 
L 415.834967 176.625451 
L 418.332394 153.147689 
L 420.829821 214.20915 
L 423.327248 200.926537 
L 425.824676 143.74981 
L 428.322103 172.021611 
L 430.81953 174.574957 
L 433.316957 171.242579 
L 435.814385 162.636759 
L 438.311812 236.98865 
L 440.809239 172.680791 
L 443.306666 142.624253 
L 445.804093 224.886308 
L 448.301521 109.391665 
L 450.798948 152.053398 
L 453.296375 175.340961 
L 455.793802 113.943396 
L 458.291229 161.143833 
L 460.788657 153.694835 
L 463.286084 172.672974 
L 465.783511 121.535694 
L 468.280938 174.535875 
L 470.778365 190.629776 
L 473.275793 198.855199 
L 475.77322 251.844959 
L 478.270647 274.012176 
L 480.768074 236.923514 
L 483.265501 243.369411 
L 485.762929 241.066188 
L 488.260356 332.676618 
L 490.757783 289.793422 
L 493.25521 218.32577 
L 495.752637 252.363444 
L 498.250065 269.958087 
L 500.747492 330.646968 
L 503.244919 281.977055 
L 505.742346 253.856371 
L 508.239774 271.091461 
L 510.737201 278.798399 
L 513.234628 280.054228 
L 515.732055 333.718801 
L 518.229482 261.578942 
L 520.72691 241.006263 
L 523.224337 238.757754 
L 525.721764 256.829196 
L 528.219191 287.628288 
L 530.716618 316.176267 
L 533.214046 273.626569 
L 538.2089 219.453933 
L 540.706327 235.696344 
L 543.203754 283.548145 
L 545.701182 221.934327 
L 548.198609 220.704551 
L 550.696036 203.347005 
L 553.193463 126.340155 
L 555.69089 221.137057 
L 558.188318 218.674901 
L 560.685745 160.21629 
L 563.183172 256.151777 
L 565.680599 160.758225 
L 568.178026 154.210715 
L 570.675454 184.744051 
L 573.172881 179.811923 
L 575.670308 158.256988 
L 578.167735 184.673704 
L 580.665163 101.838449 
L 583.16259 174.210193 
L 585.660017 170.898659 
L 588.157444 152.889749 
L 590.654871 157.506616 
L 593.152299 158.702521 
L 595.649726 150.58392 
L 598.147153 136.256519 
L 600.64458 162.214675 
L 603.142007 229.445856 
L 605.639435 173.321733 
L 608.136862 215.699471 
L 610.634289 185.906084 
L 613.131716 175.677065 
L 615.629143 190.186848 
L 618.126571 188.907569 
L 620.623998 180.643064 
L 623.121425 158.220511 
L 625.618852 215.926146 
L 628.116279 117.465972 
L 630.613707 106.517847 
L 633.111134 70.502632 
L 635.608561 111.822555 
L 638.105988 94.006449 
L 640.603415 176.956344 
L 643.100843 62.985892 
L 645.59827 48.489136 
L 648.095697 100.936961 
L 650.593124 134.672402 
L 653.090551 66.485019 
L 655.587979 136.342499 
L 658.085406 145.654398 
L 660.582833 94.272205 
L 663.08026 101.082866 
L 665.577688 141.264205 
L 668.075115 73.650023 
L 670.572542 131.759503 
L 673.069969 146.49596 
L 675.567396 156.420141 
L 678.064824 165.547053 
L 680.562251 149.374989 
L 683.059678 158.108477 
L 685.557105 143.932192 
L 688.054532 174.947537 
L 690.55196 138.132447 
L 693.049387 179.142321 
L 695.546814 136.386792 
L 698.044241 129.74288 
L 700.541668 152.147194 
L 703.039096 128.450574 
L 705.536523 107.987324 
L 708.03395 152.717789 
L 710.531377 147.35055 
L 713.028804 152.079452 
L 715.526232 114.842278 
L 718.023659 112.127393 
L 720.521086 139.304902 
L 723.018513 212.29414 
L 725.51594 167.136381 
L 728.013368 249.593845 
L 730.510795 145.479833 
L 733.008222 126.626755 
L 735.505649 138.098576 
L 738.003077 182.977552 
L 740.500504 166.052511 
L 742.997931 176.297163 
L 745.495358 188.688711 
L 747.992785 169.650646 
L 750.490213 187.716876 
L 752.98764 214.678132 
L 755.485067 167.881541 
L 757.982494 182.717006 
L 760.479921 177.70932 
L 762.977349 159.468525 
L 765.474776 169.635013 
L 767.972203 198.925547 
L 770.46963 223.036434 
L 772.967057 209.550595 
L 775.464485 183.399636 
L 777.961912 252.032552 
L 780.459339 177.456591 
L 782.956766 130.649578 
L 785.454193 161.477331 
L 787.951621 177.10746 
L 790.449048 158.567037 
L 792.946475 179.62433 
L 795.443902 172.662553 
L 797.941329 125.045243 
L 800.438757 117.942771 
L 802.936184 98.685847 
L 805.433611 164.616905 
L 807.931038 189.88201 
L 810.428466 165.437624 
L 812.925893 196.335724 
L 815.42332 212.424413 
L 817.920747 222.632589 
L 820.418174 216.121555 
L 822.915602 207.841416 
L 825.413029 215.647362 
L 827.910456 211.343149 
L 830.407883 245.482436 
L 832.90531 199.764503 
L 837.900165 217.025648 
L 840.397592 239.818175 
L 842.895019 248.723623 
L 845.392446 236.827112 
L 847.889874 235.805773 
L 850.387301 258.653015 
L 852.884728 218.880732 
L 855.382155 242.843109 
L 857.879582 261.370505 
L 860.37701 275.004855 
L 862.874437 227.572533 
L 865.371864 243.856631 
L 867.869291 223.273531 
L 870.366718 240.534675 
L 872.864146 208.948735 
L 877.859 260.182417 
L 880.356427 260.234526 
L 882.853854 232.267564 
L 885.351282 276.581156 
L 887.848709 294.066369 
L 890.346136 279.275197 
L 892.843563 269.139974 
L 895.340991 278.631649 
L 897.838418 275.080413 
L 900.335845 292.073196 
L 902.833272 288.735607 
L 905.330699 311.78868 
L 907.828127 282.070851 
L 910.325554 287.821092 
L 912.822981 281.289214 
L 915.320408 278.386737 
L 917.817835 293.503591 
L 920.315263 309.433348 
L 922.81269 320.037553 
L 925.310117 291.393172 
L 927.807544 339.252789 
L 930.304971 331.152427 
L 932.802399 347.009231 
L 935.299826 331.960118 
L 937.797253 347.452158 
L 940.29468 316.014729 
L 942.792107 372.639099 
L 945.289535 332.525502 
L 947.786962 352.858479 
L 950.284389 358.989116 
L 952.781816 355.854753 
L 955.279243 352.475477 
L 957.776671 320.378867 
L 960.274098 333.546841 
L 962.771525 383.068738 
L 965.268952 347.629329 
L 967.76638 335.381082 
L 970.263807 343.132312 
L 972.761234 323.752932 
L 975.258661 344.54968 
L 977.756088 374.01478 
L 980.253516 355.995448 
L 982.750943 333.859495 
L 985.24837 345.610101 
L 987.745797 331.165454 
L 990.243224 366.227072 
L 992.740652 349.489624 
L 995.238079 363.215165 
L 997.735506 375.208078 
L 1000.232933 326.13953 
L 1002.73036 340.141249 
L 1005.227788 316.926638 
L 1007.725215 357.290359 
L 1007.725215 357.290359 
" clip-path="url(#p5eec805173)" style="fill: none; stroke: #1f2933; stroke-width: 1.1; stroke-linecap: square"/>
   </g>
   <g id="line2d_40">
    <path d="M 116.143702 345.241615 
L 118.641129 341.690751 
L 121.138557 345.522632 
L 123.635984 351.178332 
L 126.133411 352.584162 
L 128.630838 352.724856 
L 131.128265 351.683418 
L 133.625693 348.292231 
L 136.12312 352.347809 
L 138.620547 342.872883 
L 141.117974 338.059862 
L 143.615401 335.225126 
L 146.112829 336.295969 
L 148.610256 335.797582 
L 151.107683 327.9399 
L 153.60511 328.837665 
L 156.102537 334.848824 
L 158.599965 333.234558 
L 161.097392 327.989776 
L 166.092246 322.446482 
L 168.589673 327.480223 
L 171.087101 312.877016 
L 173.584528 307.903573 
L 176.081955 300.61053 
L 178.579382 303.163504 
L 181.076809 294.588577 
L 183.574237 293.432499 
L 186.071664 294.248007 
L 188.569091 297.125175 
L 191.066518 297.326911 
L 193.563945 293.306693 
L 196.061373 296.320833 
L 198.5588 301.727898 
L 201.056227 300.596386 
L 203.553654 289.602107 
L 206.051082 288.829031 
L 208.548509 282.421099 
L 211.045936 282.434498 
L 213.543363 272.387861 
L 216.04079 264.819012 
L 218.538218 254.005254 
L 221.035645 253.273121 
L 223.533072 250.252653 
L 226.030499 245.115067 
L 228.527926 243.564076 
L 231.025354 244.447698 
L 233.522781 244.816556 
L 236.020208 243.187029 
L 238.517635 237.947086 
L 241.015062 237.095101 
L 243.51249 238.252668 
L 246.009917 240.058994 
L 248.507344 239.498076 
L 251.004771 248.21742 
L 253.502198 255.584532 
L 255.999626 261.364178 
L 258.497053 264.338864 
L 260.99448 267.653748 
L 263.491907 273.116272 
L 265.989334 271.655356 
L 268.486762 261.053012 
L 270.984189 260.518149 
L 273.481616 256.177832 
L 275.979043 249.669775 
L 278.476471 247.002533 
L 280.973898 237.428228 
L 283.471325 234.868553 
L 285.968752 235.244483 
L 288.466179 225.40591 
L 290.963607 222.750951 
L 293.461034 219.272667 
L 295.958461 213.481111 
L 298.455888 205.82256 
L 300.953315 206.194024 
L 303.450743 192.296895 
L 305.94817 195.816121 
L 308.445597 190.17866 
L 310.943024 186.441692 
L 313.440451 187.394916 
L 315.937879 188.758314 
L 318.435306 171.260445 
L 320.932733 173.379053 
L 323.43016 177.728675 
L 325.927587 181.774948 
L 328.425015 182.018744 
L 330.922442 184.32755 
L 333.419869 175.997536 
L 335.917296 186.246655 
L 338.414723 187.803973 
L 340.912151 180.124578 
L 343.409578 175.857586 
L 345.907005 182.256213 
L 348.404432 172.418756 
L 350.90186 170.667518 
L 353.399287 174.847413 
L 355.896714 173.338855 
L 358.394141 169.458214 
L 360.891568 177.652745 
L 363.388996 171.502753 
L 365.886423 174.638977 
L 368.38385 173.593817 
L 370.881277 164.902017 
L 373.378704 164.92956 
L 375.876132 160.823734 
L 378.373559 151.747815 
L 380.870986 150.517295 
L 383.368413 141.623014 
L 385.86584 146.645588 
L 388.363268 148.198067 
L 390.860695 146.991369 
L 393.358122 160.029442 
L 395.855549 154.560963 
L 398.352976 146.81792 
L 400.850404 145.624622 
L 403.347831 152.942602 
L 405.845258 157.729197 
L 408.342685 153.584661 
L 410.840112 146.054522 
L 413.33754 149.542855 
L 415.834967 156.002896 
L 418.332394 166.44668 
L 420.829821 161.867777 
L 423.327248 164.561446 
L 425.824676 174.326322 
L 428.322103 170.689106 
L 430.81953 175.142574 
L 433.316957 176.465029 
L 435.814385 175.696048 
L 438.311812 177.051629 
L 440.809239 180.305843 
L 443.306666 176.270737 
L 445.804093 176.109943 
L 448.301521 183.662042 
L 450.798948 174.350144 
L 453.296375 171.608832 
L 455.793802 173.423718 
L 458.291229 155.845825 
L 460.788657 154.197688 
L 463.286084 155.779199 
L 465.783511 148.320152 
L 468.280938 150.055013 
L 470.778365 153.266796 
L 473.275793 155.450912 
L 475.77322 167.581169 
L 478.270647 180.538473 
L 480.768074 197.726665 
L 483.265501 206.905313 
L 485.762929 224.31013 
L 488.260356 233.81446 
L 490.757783 254.106867 
L 493.25521 267.098041 
L 495.752637 262.309586 
L 498.250065 259.21691 
L 500.747492 263.936135 
L 503.244919 276.404357 
L 505.742346 282.248767 
L 508.239774 270.988731 
L 510.737201 268.317022 
L 513.234628 276.955969 
L 515.732055 280.911795 
L 518.229482 290.020469 
L 520.72691 280.153608 
L 523.224337 274.300638 
L 528.219191 270.106226 
L 530.716618 271.367639 
L 533.214046 276.52793 
L 535.711473 267.943326 
L 538.2089 265.72571 
L 540.706327 262.646806 
L 543.203754 262.209462 
L 545.701182 266.026455 
L 548.198609 256.641603 
L 550.696036 243.002786 
L 553.193463 232.962849 
L 555.69089 215.860637 
L 558.188318 216.101083 
L 560.685745 213.669449 
L 563.183172 196.050612 
L 565.680599 200.93882 
L 568.178026 192.375059 
L 570.675454 185.355589 
L 573.172881 193.699002 
L 575.670308 187.795412 
L 578.167735 179.164281 
L 580.665163 182.658198 
L 583.16259 160.613436 
L 585.660017 162.535146 
L 588.157444 164.919138 
L 590.654871 160.368524 
L 593.152299 157.182051 
L 595.649726 157.245699 
L 598.147153 152.37573 
L 600.64458 157.292597 
L 603.142007 155.578951 
L 605.639435 163.942837 
L 608.136862 166.861691 
L 610.634289 175.174956 
L 613.131716 179.06118 
L 615.629143 182.645915 
L 618.126571 190.350247 
L 620.623998 194.163518 
L 623.121425 187.191691 
L 625.618852 185.034373 
L 628.116279 185.066755 
L 633.111134 165.409708 
L 635.608561 148.311963 
L 638.105988 137.299818 
L 640.603415 124.923159 
L 643.100843 127.599706 
L 645.59827 105.751099 
L 648.095697 95.897265 
L 650.593124 95.099996 
L 653.090551 104.267106 
L 655.587979 97.790315 
L 658.085406 103.838322 
L 660.582833 99.366615 
L 663.08026 103.836089 
L 665.577688 111.349479 
L 668.075115 117.110514 
L 670.572542 108.393031 
L 673.069969 117.717957 
L 678.064824 120.706415 
L 680.562251 130.888536 
L 683.059678 137.787411 
L 685.557105 140.193735 
L 688.054532 150.234045 
L 690.55196 156.403764 
L 693.049387 155.208977 
L 695.546814 158.455002 
L 698.044241 154.289251 
L 700.541668 151.484664 
L 703.039096 150.633052 
L 705.536523 148.421392 
L 708.03395 138.855647 
L 710.531377 140.939268 
L 713.028804 136.397586 
L 715.526232 138.639395 
L 718.023659 136.510737 
L 720.521086 130.793623 
L 723.018513 132.344241 
L 725.51594 147.245215 
L 728.013368 149.305014 
L 730.510795 163.911199 
L 733.008222 162.968396 
L 735.505649 164.651893 
L 738.003077 168.362062 
L 740.500504 174.601012 
L 742.997931 167.995065 
L 745.495358 169.303748 
L 747.992785 160.603015 
L 750.490213 164.055988 
L 752.98764 172.783148 
L 755.485067 183.723085 
L 757.982494 181.566512 
L 760.479921 183.947154 
L 762.977349 184.14889 
L 765.474776 179.974578 
L 767.972203 179.972345 
L 770.46963 181.573584 
L 772.967057 182.767627 
L 775.464485 188.720349 
L 777.961912 188.817867 
L 780.459339 199.435472 
L 782.956766 202.005195 
L 787.951621 191.086103 
L 790.449048 184.524821 
L 792.946475 177.241455 
L 795.443902 176.702126 
L 797.941329 165.363554 
L 800.438757 157.876219 
L 802.936184 156.060961 
L 805.433611 147.090749 
L 807.931038 145.306384 
L 810.428466 149.779951 
L 812.925893 147.753279 
L 815.42332 151.13516 
L 817.920747 163.617899 
L 820.418174 178.573587 
L 822.915602 195.350117 
L 825.413029 201.525047 
L 827.910456 205.205812 
L 830.407883 211.763744 
L 832.90531 218.784703 
L 835.402738 216.976144 
L 837.900165 214.953938 
L 840.397592 215.083095 
L 845.392446 224.376383 
L 847.889874 228.016949 
L 850.387301 226.634569 
L 852.884728 235.047213 
L 855.382155 236.53344 
L 857.879582 240.221648 
L 860.37701 243.300553 
L 862.874437 247.055014 
L 865.371864 245.732932 
L 867.869291 246.883054 
L 870.366718 241.828842 
L 872.864146 244.922263 
L 875.361573 240.080209 
L 877.859 236.180214 
L 880.356427 234.062723 
L 882.853854 238.728722 
L 885.351282 237.073141 
L 890.346136 252.335901 
L 892.843563 262.382539 
L 895.340991 267.392458 
L 897.838418 270.028062 
L 900.335845 272.148903 
L 902.833272 280.692565 
L 905.330699 282.428915 
L 907.828127 284.960674 
L 910.325554 285.360053 
L 912.822981 288.028784 
L 920.315263 289.08511 
L 922.81269 292.04193 
L 925.310117 293.220341 
L 927.807544 294.552101 
L 932.802399 309.022802 
L 935.299826 318.826016 
L 940.29468 329.751064 
L 942.792107 329.176375 
L 945.289535 340.782936 
L 947.786962 339.821895 
L 950.284389 342.922759 
L 952.781816 344.634172 
L 955.279243 348.047691 
L 960.274098 349.388756 
L 962.771525 343.804148 
L 965.268952 351.02461 
L 967.76638 350.277589 
L 970.263807 346.905012 
L 972.761234 345.087521 
L 975.258661 340.9843 
L 977.756088 344.437274 
L 980.253516 350.218408 
L 982.750943 346.350795 
L 985.24837 344.383676 
L 987.745797 345.844964 
L 990.243224 344.135413 
L 992.740652 350.203147 
L 995.238079 350.908853 
L 997.735506 349.366051 
L 1000.232933 352.110713 
L 1002.73036 351.007861 
L 1005.227788 350.226596 
L 1007.725215 348.19248 
L 1007.725215 348.19248 
" clip-path="url(#p5eec805173)" style="fill: none; stroke-dasharray: 3.33,1.44; stroke-dashoffset: 0; stroke: #9aa0a6; stroke-width: 0.9"/>
   </g>
   <g id="line2d_41">
    <path d="M 136.12312 357.691157 
L 138.620547 350.635316 
L 141.117974 337.584415 
L 143.615401 339.468279 
L 146.112829 338.002434 
L 148.610256 332.61737 
L 151.107683 329.593323 
L 153.60511 321.982007 
L 156.102537 317.04478 
L 158.599965 318.665955 
L 161.097392 323.05889 
L 163.594819 330.824154 
L 166.092246 315.122289 
L 168.589673 312.101464 
L 171.087101 319.398528 
L 173.584528 311.608792 
L 176.081955 310.808799 
L 178.579382 297.457406 
L 181.076809 293.873164 
L 183.574237 296.668219 
L 186.071664 285.519104 
L 188.569091 284.935685 
L 191.066518 294.074836 
L 193.563945 290.317448 
L 196.061373 290.752133 
L 198.5588 287.82021 
L 201.056227 282.09069 
L 203.553654 285.778171 
L 206.051082 281.491526 
L 208.548509 281.078352 
L 211.045936 271.555184 
L 213.543363 266.4695 
L 216.04079 265.332361 
L 218.538218 257.243372 
L 221.035645 251.472036 
L 223.533072 247.749963 
L 226.030499 244.903686 
L 228.527926 239.544138 
L 231.025354 237.570632 
L 233.522781 237.87734 
L 236.020208 233.925762 
L 238.517635 229.620295 
L 241.015062 229.221431 
L 243.51249 226.370479 
L 246.009917 226.816113 
L 248.507344 228.83112 
L 251.004771 238.155269 
L 253.502198 247.001856 
L 255.999626 246.527676 
L 258.497053 248.228271 
L 260.99448 251.841384 
L 263.491907 261.275525 
L 265.989334 258.654484 
L 268.486762 249.396622 
L 270.984189 253.12665 
L 273.481616 247.942854 
L 275.979043 242.262651 
L 278.476471 244.924521 
L 280.973898 237.710379 
L 283.471325 236.543508 
L 285.968752 235.904256 
L 288.466179 226.145902 
L 290.963607 219.940375 
L 293.461034 214.822169 
L 295.958461 210.738571 
L 298.455888 201.728623 
L 300.953315 203.792332 
L 303.450743 193.414315 
L 305.94817 193.435018 
L 308.445597 188.06858 
L 310.943024 183.189288 
L 313.440451 182.704582 
L 315.937879 185.196148 
L 318.435306 166.376671 
L 320.932733 162.793454 
L 325.927587 180.371628 
L 328.425015 178.671945 
L 330.922442 180.804128 
L 333.419869 165.383359 
L 335.917296 171.569772 
L 338.414723 174.39657 
L 340.912151 172.9662 
L 343.409578 169.134948 
L 345.907005 177.282934 
L 348.404432 168.385853 
L 350.90186 163.666795 
L 353.399287 169.430777 
L 355.896714 167.541348 
L 358.394141 164.699491 
L 360.891568 173.103346 
L 363.388996 166.822528 
L 365.886423 167.568033 
L 368.38385 164.959437 
L 370.881277 157.190619 
L 373.378704 156.827539 
L 375.876132 158.173221 
L 378.373559 150.259064 
L 380.870986 151.358213 
L 383.368413 142.674809 
L 385.86584 143.138667 
L 388.363268 143.768367 
L 390.860695 143.28889 
L 393.358122 153.655894 
L 398.352976 138.850374 
L 400.850404 136.13019 
L 403.347831 145.621524 
L 405.845258 151.190847 
L 408.342685 149.181117 
L 410.840112 145.686925 
L 413.33754 144.820085 
L 415.834967 150.710338 
L 418.332394 159.88702 
L 420.829821 157.081752 
L 423.327248 162.490101 
L 425.824676 166.571483 
L 428.322103 165.17206 
L 430.81953 169.432139 
L 433.316957 172.633348 
L 435.814385 170.393825 
L 438.311812 168.675012 
L 440.809239 178.47238 
L 443.306666 174.353192 
L 445.804093 173.460426 
L 448.301521 180.409814 
L 450.798948 171.203164 
L 453.296375 170.66572 
L 455.793802 168.208831 
L 458.291229 155.985638 
L 460.788657 157.511071 
L 465.783511 154.591032 
L 468.280938 152.632293 
L 470.778365 155.434593 
L 473.275793 154.262616 
L 475.77322 163.860517 
L 478.270647 178.2173 
L 480.768074 191.737982 
L 483.265501 206.430604 
L 485.762929 220.166466 
L 488.260356 227.349549 
L 490.757783 256.281238 
L 493.25521 269.217923 
L 495.752637 260.348345 
L 498.250065 258.607634 
L 500.747492 264.101931 
L 503.244919 281.287004 
L 505.742346 280.829039 
L 508.239774 274.985099 
L 510.737201 274.401586 
L 513.234628 278.322396 
L 515.732055 282.755894 
L 518.229482 289.796053 
L 520.72691 283.44808 
L 523.224337 275.788827 
L 525.721764 270.587133 
L 528.219191 270.723369 
L 530.716618 272.486398 
L 533.214046 275.444735 
L 535.711473 270.536789 
L 538.2089 269.377283 
L 540.706327 264.579636 
L 543.203754 261.874078 
L 545.701182 265.100237 
L 548.198609 253.216353 
L 550.696036 240.289637 
L 553.193463 233.595987 
L 555.69089 215.817587 
L 558.188318 218.235228 
L 560.685745 211.387779 
L 563.183172 195.030093 
L 565.680599 202.312871 
L 568.178026 191.066703 
L 570.675454 189.127511 
L 573.172881 190.160814 
L 575.670308 184.224201 
L 578.167735 177.293391 
L 580.665163 176.321061 
L 583.16259 158.242387 
L 585.660017 163.203821 
L 588.157444 166.594898 
L 590.654871 158.362863 
L 593.152299 156.440637 
L 595.649726 157.155797 
L 598.147153 152.566655 
L 600.64458 154.86352 
L 603.142007 155.121791 
L 605.639435 166.191857 
L 608.136862 166.768602 
L 610.634289 178.197988 
L 613.131716 178.859517 
L 615.629143 187.099494 
L 618.126571 189.126108 
L 620.623998 188.484173 
L 623.121425 187.154993 
L 625.618852 181.161863 
L 628.116279 186.245862 
L 630.613707 173.725762 
L 633.111134 163.504007 
L 635.608561 141.462398 
L 638.105988 129.98985 
L 640.603415 121.71325 
L 643.100843 125.535365 
L 645.59827 106.967602 
L 648.095697 94.797392 
L 650.593124 95.545554 
L 653.090551 103.563402 
L 655.587979 95.350197 
L 658.085406 100.176382 
L 660.582833 102.019463 
L 663.08026 106.822118 
L 665.577688 108.979377 
L 668.075115 115.386836 
L 670.572542 106.624034 
L 673.069969 114.79202 
L 675.567396 113.678123 
L 680.562251 135.880493 
L 683.059678 137.607654 
L 685.557105 143.049997 
L 688.054532 149.008683 
L 690.55196 154.185971 
L 693.049387 149.837663 
L 695.546814 157.647452 
L 698.044241 152.47365 
L 700.541668 148.114495 
L 703.039096 150.920434 
L 705.536523 144.457581 
L 708.03395 136.691956 
L 710.531377 137.838307 
L 713.028804 136.122958 
L 715.526232 140.463109 
L 718.023659 133.862336 
L 720.521086 129.75074 
L 723.018513 131.564701 
L 725.51594 148.903964 
L 728.013368 148.233332 
L 730.510795 169.752816 
L 733.008222 164.632837 
L 735.505649 163.796807 
L 738.003077 163.175908 
L 740.500504 168.698926 
L 742.997931 165.253446 
L 745.495358 163.203011 
L 747.992785 163.209862 
L 750.490213 168.226446 
L 755.485067 185.105168 
L 757.982494 180.026009 
L 760.479921 182.989016 
L 762.977349 178.592112 
L 765.474776 178.27993 
L 767.972203 178.185913 
L 770.46963 180.230106 
L 772.967057 185.491325 
L 775.464485 191.282973 
L 777.961912 189.94099 
L 780.459339 203.116365 
L 782.956766 202.010175 
L 785.454193 190.453975 
L 787.951621 182.059505 
L 790.449048 180.200055 
L 792.946475 174.730202 
L 795.443902 172.150457 
L 797.941329 167.442208 
L 800.438757 159.921295 
L 802.936184 152.819967 
L 805.433611 140.120992 
L 807.931038 143.311387 
L 810.428466 150.408219 
L 812.925893 147.072309 
L 815.42332 156.038888 
L 817.920747 170.177153 
L 820.418174 185.24401 
L 822.915602 196.139908 
L 827.910456 204.680503 
L 830.407883 208.988943 
L 832.90531 219.355198 
L 835.402738 216.047645 
L 837.900165 215.986633 
L 840.397592 214.852993 
L 842.895019 220.331615 
L 845.392446 227.499678 
L 847.889874 228.328029 
L 850.387301 228.85568 
L 852.884728 236.918216 
L 855.382155 235.60852 
L 860.37701 242.902716 
L 862.874437 249.672867 
L 865.371864 244.962356 
L 867.869291 246.314275 
L 870.366718 241.563385 
L 872.864146 244.116261 
L 875.361573 235.913297 
L 877.859 233.061707 
L 880.356427 236.230395 
L 882.853854 241.435566 
L 885.351282 238.702921 
L 890.346136 258.005146 
L 892.843563 265.597577 
L 895.340991 267.241139 
L 897.838418 271.17357 
L 900.335845 273.778284 
L 902.833272 281.502011 
L 905.330699 282.285023 
L 907.828127 289.174973 
L 910.325554 288.011931 
L 912.822981 289.226152 
L 915.320408 288.685347 
L 917.817835 289.194259 
L 920.315263 289.219647 
L 922.81269 291.987355 
L 925.310117 297.064642 
L 927.807544 297.035347 
L 930.304971 306.83513 
L 932.802399 313.836754 
L 935.299826 323.573986 
L 937.797253 327.108343 
L 940.29468 331.863192 
L 942.792107 331.429943 
L 945.289535 343.104367 
L 947.786962 341.388883 
L 950.284389 345.774657 
L 952.781816 347.858871 
L 955.279243 350.405381 
L 957.776671 352.155061 
L 960.274098 348.428344 
L 962.771525 343.725942 
L 965.268952 352.953012 
L 967.76638 351.085146 
L 972.761234 345.305674 
L 975.258661 342.813711 
L 977.756088 344.01535 
L 980.253516 350.782125 
L 982.750943 348.924594 
L 985.24837 345.887785 
L 987.745797 346.235617 
L 990.243224 344.204559 
L 992.740652 352.252342 
L 995.238079 350.803792 
L 997.735506 350.113918 
L 1000.232933 355.709341 
L 1002.73036 351.560189 
L 1005.227788 350.789397 
L 1007.725215 345.266178 
L 1007.725215 345.266178 
" clip-path="url(#p5eec805173)" style="fill: none; stroke: #1677b8; stroke-width: 1.15; stroke-linecap: square"/>
   </g>
   <g id="line2d_42">
    <path d="M 1007.725215 348.19248 
L 1010.222642 346.915806 
L 1012.720069 346.915806 
L 1015.217496 346.915806 
L 1017.714924 346.915806 
L 1020.212351 346.915806 
" clip-path="url(#p5eec805173)" style="fill: none; stroke-dasharray: 1.1,1.815; stroke-dashoffset: 0; stroke: #9aa0a6; stroke-width: 1.1"/>
   </g>
   <g id="line2d_43">
    <path d="M 1007.725215 345.266178 
L 1010.222642 347.093835 
L 1012.720069 347.086969 
L 1015.217496 347.079546 
L 1017.714924 347.071572 
L 1020.212351 347.063053 
" clip-path="url(#p5eec805173)" style="fill: none; stroke: #e09f00; stroke-width: 2.3; stroke-linecap: square"/>
   </g>
   <g id="line2d_44">
    <path d="M 1007.725215 399.797718 
L 1007.725215 31.760156 
" clip-path="url(#p5eec805173)" style="fill: none; stroke-dasharray: 3.7,1.6; stroke-dashoffset: 0; stroke: #777777"/>
   </g>
   <g id="patch_4">
    <path d="M 52.58418 399.797718 
L 52.58418 31.760156 
" style="fill: none; stroke: #000000; stroke-width: 0.8; stroke-linejoin: miter; stroke-linecap: square"/>
   </g>
   <g id="patch_5">
    <path d="M 1066.289883 399.797718 
L 1066.289883 31.760156 
" style="fill: none; stroke: #000000; stroke-width: 0.8; stroke-linejoin: miter; stroke-linecap: square"/>
   </g>
   <g id="patch_6">
    <path d="M 52.58418 399.797718 
L 1066.289883 399.797718 
" style="fill: none; stroke: #000000; stroke-width: 0.8; stroke-linejoin: miter; stroke-linecap: square"/>
   </g>
   <g id="patch_7">
    <path d="M 52.58418 31.760156 
L 1066.289883 31.760156 
" style="fill: none; stroke: #000000; stroke-width: 0.8; stroke-linejoin: miter; stroke-linecap: square"/>
   </g>
   <g id="text_22">
    <!-- 光伏：实际值与新旧方法对比（每天 14:00） -->
    <g transform="translate(410.319453 19.760156) scale(0.15 -0.15)">
     <defs>
      <path id="MicrosoftYaHei-379" d="M 1606 3531 
Q 1772 3531 1890 3415 
Q 2009 3300 2009 3138 
Q 2009 2975 1893 2858 
Q 1778 2741 1606 2741 
Q 1434 2741 1318 2858 
Q 1203 2975 1203 3138 
Q 1203 3300 1322 3415 
Q 1441 3531 1606 3531 
z
M 1606 716 
Q 1772 716 1890 600 
Q 2009 484 2009 319 
Q 2009 150 1890 36 
Q 1772 -78 1606 -78 
Q 1441 -78 1322 36 
Q 1203 150 1203 319 
Q 1203 484 1322 600 
Q 1441 716 1606 716 
z
" transform="scale(0.015625)"/>
      <path id="MicrosoftYaHei-49b" d="M 1619 -216 
L 2250 -216 
L 2250 3653 
L 3725 3653 
L 3725 4222 
L 1913 4222 
L 1913 4647 
L 3725 4647 
L 3725 5309 
L 4200 5309 
L 4200 4647 
L 6169 4647 
L 6169 4222 
L 4200 4222 
L 4200 3653 
L 5713 3653 
L 5713 -216 
L 6306 -216 
L 6306 -641 
L 1619 -641 
L 1619 -216 
z
M 69 2247 
Q 906 3497 1369 5278 
L 1831 5141 
Q 1581 4334 1288 3628 
L 1288 -816 
L 831 -816 
L 831 2666 
Q 563 2166 263 1734 
Q 175 1997 69 2247 
z
M 2713 -216 
L 5250 -216 
L 5250 353 
L 2713 353 
L 2713 -216 
z
M 5250 3241 
L 2713 3241 
L 2713 2678 
L 5250 2678 
L 5250 3241 
z
M 2713 1716 
L 5250 1716 
L 5250 2278 
L 2713 2278 
L 2713 1716 
z
M 2713 753 
L 5250 753 
L 5250 1316 
L 2713 1316 
L 2713 753 
z
" transform="scale(0.015625)"/>
      <path id="MicrosoftYaHei-40a" d="M 1163 2384 
L 1163 2859 
L 1413 5328 
L 1931 5328 
L 1834 4334 
L 6269 4334 
L 6269 3859 
L 1791 3859 
L 1694 2859 
L 5813 2859 
Q 5738 1547 5644 416 
Q 5556 -247 5263 -478 
Q 4981 -703 4322 -703 
Q 3706 -697 2900 -678 
Q 2863 -466 2794 -134 
Q 3744 -203 4213 -209 
Q 5050 -266 5125 447 
Q 5206 1278 5263 2384 
L 1163 2384 
z
M 106 1409 
L 4738 1409 
L 4738 934 
L 106 934 
L 106 1409 
z
" transform="scale(0.015625)"/>
      <path id="MicrosoftYaHei-78f" d="M 3594 4797 
Q 4888 4809 5981 5053 
L 6144 4572 
Q 4906 4409 4038 4359 
L 4038 2903 
L 6319 2903 
L 6319 2478 
L 5425 2478 
L 5425 -797 
L 4963 -797 
L 4963 2478 
L 4038 2478 
L 4038 2172 
Q 4038 253 3119 -816 
Q 2969 -622 2788 -416 
Q 3594 466 3594 2191 
L 3594 4797 
z
M 263 1991 
L 1538 1991 
L 1538 2584 
L 1988 2584 
L 1988 1991 
L 3213 1991 
L 3213 1591 
L 1988 1591 
L 1988 -41 
Q 1988 -703 1350 -703 
Q 1081 -703 744 -697 
Q 719 -491 675 -222 
Q 1038 -259 1244 -259 
Q 1538 -259 1538 59 
L 1538 1591 
L 263 1591 
L 263 1991 
z
M 88 3159 
L 1094 3159 
Q 828 3581 594 3884 
L 931 4122 
Q 1138 3872 1463 3416 
L 1109 3159 
L 1934 3159 
Q 2275 3650 2563 4128 
L 3006 3878 
Q 2703 3488 2428 3159 
L 3375 3159 
L 3375 2759 
L 88 2759 
L 88 3159 
z
M 288 4609 
L 1638 4609 
Q 1503 4866 1331 5166 
L 1731 5353 
Q 1925 5034 2094 4709 
L 1884 4609 
L 3213 4609 
L 3213 4209 
L 288 4209 
L 288 4609 
z
M 744 1309 
L 1169 1109 
Q 831 403 500 -166 
Q 319 -53 88 59 
Q 394 534 744 1309 
z
M 2544 1278 
Q 2894 803 3156 403 
L 2756 128 
Q 2481 609 2175 1034 
L 2544 1278 
z
" transform="scale(0.015625)"/>
      <path id="MicrosoftYaHei-79b" d="M 2231 4941 
L 5925 4941 
L 5925 -766 
L 5413 -766 
L 5413 -222 
L 2744 -222 
L 2744 -766 
L 2231 -766 
L 2231 4941 
z
M 625 5066 
L 1138 5066 
L 1138 -822 
L 625 -822 
L 625 5066 
z
M 5413 2653 
L 5413 4472 
L 2744 4472 
L 2744 2653 
L 5413 2653 
z
M 2744 2203 
L 2744 234 
L 5413 234 
L 5413 2203 
L 2744 2203 
z
" transform="scale(0.015625)"/>
      <path id="MicrosoftYaHei-790" d="M 194 4241 
L 3194 4241 
Q 2878 4841 2700 5116 
L 3188 5347 
Q 3363 5078 3713 4472 
L 3256 4241 
L 6219 4241 
L 6219 3766 
L 2428 3766 
Q 2406 3197 2381 2797 
L 5400 2797 
Q 5325 1441 5238 441 
Q 5169 -691 4138 -691 
Q 3663 -691 2869 -641 
Q 2838 -403 2775 -66 
Q 3569 -172 4063 -172 
Q 4638 -172 4706 509 
Q 4781 1253 4838 2328 
L 2347 2328 
Q 2172 266 438 -872 
Q 269 -672 56 -447 
Q 1706 641 1825 2466 
Q 1869 2959 1897 3766 
L 194 3766 
L 194 4241 
z
" transform="scale(0.015625)"/>
      <path id="MicrosoftYaHei-863" d="M 4888 1328 
Q 5488 509 6181 -553 
Q 5931 -697 5694 -841 
Q 5519 -550 5350 -278 
Q 3300 -447 2138 -559 
L 1906 -16 
Q 2300 159 2675 716 
Q 3088 1303 3441 1953 
L 1800 1953 
L 1800 2403 
L 3763 2403 
L 3763 3728 
L 2106 3728 
L 2106 4178 
L 3763 4178 
L 3763 5322 
L 4263 5322 
L 4263 4178 
L 5994 4178 
L 5994 3728 
L 4263 3728 
L 4263 2403 
L 6288 2403 
L 6288 1953 
L 4069 1953 
Q 3372 806 2706 -28 
Q 3897 28 5088 141 
Q 4766 644 4475 1066 
L 4888 1328 
z
M 1013 1828 
Q 1244 1728 1506 1622 
Q 1063 291 731 -784 
L 194 -603 
Q 606 497 1013 1828 
z
M 400 3622 
Q 869 3291 1500 2772 
Q 1269 2509 1138 2366 
Q 431 2997 88 3259 
L 400 3622 
z
M 644 5241 
Q 1144 4841 1719 4328 
Q 1506 4109 1350 3941 
Q 775 4509 325 4897 
L 644 5241 
z
" transform="scale(0.015625)"/>
      <path id="MicrosoftYaHei-62b" d="M 694 3691 
Q 1234 2909 1741 2166 
Q 2113 3081 2213 4147 
L 250 4147 
L 250 4622 
L 2725 4622 
L 2725 4166 
Q 2553 2809 2059 1700 
Q 2569 953 3044 247 
L 2594 -53 
Q 2203 563 1803 1181 
Q 1247 163 388 -622 
Q 263 -428 81 -166 
Q 975 638 1500 1647 
Q 919 2538 319 3434 
L 694 3691 
z
M 2975 3941 
L 5056 3941 
L 5056 5278 
L 5563 5278 
L 5563 3941 
L 6325 3941 
L 6325 3466 
L 5563 3466 
L 5563 191 
Q 5563 -716 4669 -716 
Q 4388 -716 3744 -709 
Q 3713 -478 3644 -147 
Q 4263 -197 4588 -197 
Q 5056 -197 5056 278 
L 5056 3466 
L 2975 3466 
L 2975 3941 
z
M 3088 2684 
L 3494 2928 
Q 4000 2184 4388 1484 
L 3919 1216 
Q 3550 1922 3088 2684 
z
" transform="scale(0.015625)"/>
      <path id="MicrosoftYaHei-841" d="M 3225 5316 
L 3744 5316 
L 3744 2672 
Q 4959 3550 5744 4509 
L 6188 4178 
Q 5175 3063 3744 2056 
L 3744 247 
Q 3744 -166 4106 -166 
L 5175 -166 
Q 5588 -166 5650 203 
Q 5725 678 5763 1247 
Q 6025 1147 6300 1066 
Q 6244 484 6150 22 
Q 6019 -622 5319 -622 
L 3944 -622 
Q 3225 -622 3225 159 
L 3225 5316 
z
M 1063 5153 
L 1063 3278 
L 2825 3278 
L 2825 2809 
L 1063 2809 
L 1063 153 
Q 1713 428 2763 928 
Q 2763 634 2788 366 
Q 1869 -3 1231 -328 
Q 956 -472 725 -672 
L 344 -184 
Q 544 -34 544 272 
L 544 5153 
L 1063 5153 
z
" transform="scale(0.015625)"/>
      <path id="MicrosoftYaHei-83f" d="M 125 2203 
L 1044 2203 
L 1325 3766 
L 5456 3766 
Q 5422 2928 5391 2203 
L 6300 2203 
L 6300 1753 
L 5372 1753 
Q 5344 1141 5319 616 
L 6075 616 
L 6075 178 
L 5284 178 
Q 5222 -278 5031 -484 
Q 4788 -753 4181 -753 
Q 3831 -753 3288 -728 
Q 3256 -516 3194 -222 
Q 3838 -278 4119 -278 
Q 4513 -278 4638 -128 
Q 4722 -41 4766 178 
L 763 178 
L 763 647 
L 963 1753 
L 125 1753 
L 125 2203 
z
M 4866 1753 
L 1472 1753 
L 1275 616 
L 4813 616 
Q 4844 1172 4866 1753 
z
M 4925 3328 
L 1750 3328 
L 1553 2203 
L 4888 2203 
Q 4906 2753 4925 3328 
z
M 100 3522 
Q 1025 4309 1550 5359 
L 2113 5359 
Q 1966 5069 1803 4803 
L 6156 4803 
L 6156 4353 
L 1509 4353 
Q 1022 3659 413 3134 
Q 281 3316 100 3522 
z
M 2619 2978 
L 2913 3303 
Q 3388 2934 3750 2622 
L 3413 2247 
Q 3025 2628 2619 2978 
z
M 2569 1391 
L 2863 1716 
Q 3338 1347 3700 1034 
L 3369 666 
Q 2888 1116 2569 1391 
z
" transform="scale(0.015625)"/>
      <path id="MicrosoftYaHei-5de" d="M 88 -353 
Q 2428 644 2813 2422 
L 169 2422 
L 169 2897 
L 2878 2897 
Q 2906 3341 2906 4428 
L 513 4428 
L 513 4903 
L 5913 4903 
L 5913 4428 
L 3456 4428 
Q 3450 3775 3431 2897 
L 6231 2897 
L 6231 2422 
L 3516 2422 
Q 4113 441 6319 -228 
Q 6063 -534 5888 -747 
Q 3850 75 3206 1969 
Q 2713 206 475 -828 
Q 344 -659 88 -353 
z
" transform="scale(0.015625)"/>
      <path id="MicrosoftYaHei-3" transform="scale(0.015625)"/>
      <path id="MicrosoftYaHei-20" d="M 372 3134 
Q 372 3303 490 3415 
Q 609 3528 775 3528 
Q 944 3528 1062 3414 
Q 1181 3300 1181 3134 
Q 1181 2969 1065 2853 
Q 950 2738 772 2738 
Q 603 2738 487 2853 
Q 372 2969 372 3134 
z
M 372 322 
Q 372 491 487 606 
Q 603 722 775 722 
Q 950 722 1065 605 
Q 1181 488 1181 322 
Q 1181 159 1065 42 
Q 950 -75 772 -75 
Q 600 -75 486 42 
Q 372 159 372 322 
z
" transform="scale(0.015625)"/>
     </defs>
     <use xlink:href="#MicrosoftYaHei-4b0"/>
     <use xlink:href="#MicrosoftYaHei-465" transform="translate(100 0)"/>
     <use xlink:href="#MicrosoftYaHei-379" transform="translate(200 0)"/>
     <use xlink:href="#MicrosoftYaHei-618" transform="translate(300 0)"/>
     <use xlink:href="#MicrosoftYaHei-b8e" transform="translate(400 0)"/>
     <use xlink:href="#MicrosoftYaHei-49b" transform="translate(500 0)"/>
     <use xlink:href="#MicrosoftYaHei-40a" transform="translate(600 0)"/>
     <use xlink:href="#MicrosoftYaHei-78f" transform="translate(700 0)"/>
     <use xlink:href="#MicrosoftYaHei-79b" transform="translate(800 0)"/>
     <use xlink:href="#MicrosoftYaHei-790" transform="translate(900 0)"/>
     <use xlink:href="#MicrosoftYaHei-863" transform="translate(1000 0)"/>
     <use xlink:href="#MicrosoftYaHei-62b" transform="translate(1100 0)"/>
     <use xlink:href="#MicrosoftYaHei-841" transform="translate(1200 0)"/>
     <use xlink:href="#MicrosoftYaHei-367" transform="translate(1300 0)"/>
     <use xlink:href="#MicrosoftYaHei-83f" transform="translate(1400 0)"/>
     <use xlink:href="#MicrosoftYaHei-5de" transform="translate(1500 0)"/>
     <use xlink:href="#MicrosoftYaHei-3" transform="translate(1600 0)"/>
     <use xlink:href="#MicrosoftYaHei-17" transform="translate(1629.59375 0)"/>
     <use xlink:href="#MicrosoftYaHei-1a" transform="translate(1688.234375 0)"/>
     <use xlink:href="#MicrosoftYaHei-20" transform="translate(1746.875 0)"/>
     <use xlink:href="#MicrosoftYaHei-16" transform="translate(1770.953125 0)"/>
     <use xlink:href="#MicrosoftYaHei-16" transform="translate(1829.59375 0)"/>
     <use xlink:href="#MicrosoftYaHei-368" transform="translate(1888.234375 0)"/>
    </g>
   </g>
   <g id="legend_1">
    <g id="patch_8">
     <path d="M 59.58418 103.314063 
L 259.168555 103.314063 
Q 261.168555 103.314063 261.168555 101.314063 
L 261.168555 38.760156 
Q 261.168555 36.760156 259.168555 36.760156 
L 59.58418 36.760156 
Q 57.58418 36.760156 57.58418 38.760156 
L 57.58418 101.314063 
Q 57.58418 103.314063 59.58418 103.314063 
z
" style="fill: #ffffff; opacity: 0.8; stroke: #cccccc; stroke-linejoin: miter"/>
    </g>
    <g id="line2d_45">
     <path d="M 61.58418 45.594531 
L 71.58418 45.594531 
L 81.58418 45.594531 
" style="fill: none; stroke: #1f2933; stroke-width: 1.1; stroke-linecap: square"/>
    </g>
    <g id="text_23">
     <!-- 实际值 -->
     <g transform="translate(89.58418 49.094531) scale(0.1 -0.1)">
      <use xlink:href="#MicrosoftYaHei-618"/>
      <use xlink:href="#MicrosoftYaHei-b8e" transform="translate(100 0)"/>
      <use xlink:href="#MicrosoftYaHei-49b" transform="translate(200 0)"/>
     </g>
    </g>
    <g id="line2d_46">
     <path d="M 61.58418 61.483398 
L 71.58418 61.483398 
L 81.58418 61.483398 
" style="fill: none; stroke-dasharray: 3.33,1.44; stroke-dashoffset: 0; stroke: #9aa0a6; stroke-width: 0.9"/>
    </g>
    <g id="text_24">
     <!-- 原方法（2月起 MAE=366.8 kW） -->
     <g transform="translate(89.58418 64.983398) scale(0.1 -0.1)">
      <defs>
       <path id="MicrosoftYaHei-53d" d="M 1950 3853 
L 3081 3853 
Q 3200 4153 3306 4472 
L 1256 4472 
L 1256 2772 
Q 1256 1322 1088 634 
Q 919 -103 394 -866 
Q 238 -653 44 -434 
Q 475 209 613 834 
Q 756 1428 756 2659 
L 756 4928 
L 6219 4928 
L 6219 4472 
L 3856 4472 
Q 3716 4134 3584 3853 
L 5719 3853 
L 5719 1291 
L 5250 1291 
L 5250 1416 
L 4094 1416 
L 4094 16 
Q 4094 -772 3381 -766 
Q 3163 -766 2594 -753 
Q 2569 -516 2513 -209 
Q 3000 -272 3281 -272 
Q 3594 -272 3594 91 
L 3594 1416 
L 2419 1416 
L 2419 1291 
L 1950 1291 
L 1950 3853 
z
M 2419 1834 
L 5250 1834 
L 5250 2434 
L 2419 2434 
L 2419 1834 
z
M 5250 3434 
L 2419 3434 
L 2419 2841 
L 5250 2841 
L 5250 3434 
z
M 2488 1172 
L 2919 891 
Q 2313 -9 1613 -703 
Q 1450 -566 1206 -397 
Q 1838 184 2488 1172 
z
M 4925 1159 
Q 5738 391 6313 -266 
L 5894 -641 
Q 5294 122 4556 859 
L 4925 1159 
z
" transform="scale(0.015625)"/>
       <path id="MicrosoftYaHei-7c3" d="M 1603 1284 
Q 1463 78 663 -897 
Q 463 -703 231 -522 
Q 838 134 1044 1041 
Q 1188 1709 1188 2891 
L 1188 5053 
L 5363 5053 
L 5363 178 
Q 5363 -747 4481 -747 
Q 4113 -747 3531 -734 
Q 3500 -509 3438 -209 
Q 4013 -247 4344 -247 
Q 4850 -247 4850 247 
L 4850 1284 
L 1603 1284 
z
M 1653 1741 
L 4850 1741 
L 4850 2941 
L 1700 2941 
Q 1700 2316 1653 1741 
z
M 1700 4584 
L 1700 3397 
L 4850 3397 
L 4850 4584 
L 1700 4584 
z
" transform="scale(0.015625)"/>
       <path id="MicrosoftYaHei-adc" d="M 106 -266 
Q 581 566 619 2241 
L 1081 2216 
Q 1059 1606 991 1091 
Q 1225 588 1613 288 
L 1613 2616 
L 138 2616 
L 138 3072 
L 1419 3072 
L 1419 3966 
L 356 3966 
L 356 4422 
L 1419 4422 
L 1419 5309 
L 1906 5309 
L 1906 4422 
L 2956 4422 
L 2956 3966 
L 1906 3966 
L 1906 3072 
L 3081 3072 
L 3081 2616 
L 2081 2616 
L 2081 1647 
L 3031 1647 
L 3031 1197 
L 2081 1197 
L 2081 16 
Q 2516 -159 3081 -166 
Q 4613 -178 6313 -141 
Q 6200 -422 6138 -634 
Q 4169 -641 2950 -616 
Q 1438 -588 884 478 
Q 709 -341 381 -853 
Q 256 -559 106 -266 
z
M 3850 1347 
Q 3850 1009 4188 1009 
L 5263 1009 
Q 5613 1009 5656 1316 
Q 5694 1597 5725 2153 
Q 5919 2066 6200 1972 
Q 6144 1366 6088 1084 
Q 5994 559 5325 559 
L 4069 559 
Q 3375 559 3375 1272 
L 3375 3303 
L 5325 3303 
L 5325 4491 
L 3256 4491 
L 3256 4941 
L 5800 4941 
L 5800 2641 
L 5325 2641 
L 5325 2853 
L 3850 2853 
L 3850 1347 
z
" transform="scale(0.015625)"/>
       <path id="MicrosoftYaHei-33" d="M 5003 0 
L 5003 3206 
Q 5003 3603 5050 4159 
L 5034 4159 
Q 4953 3809 4891 3672 
L 3294 0 
L 2947 0 
L 1353 3644 
Q 1297 3769 1209 4159 
L 1191 4159 
Q 1222 3822 1222 3178 
L 1222 0 
L 625 0 
L 625 4841 
L 1472 4841 
L 2900 1522 
Q 3063 1141 3116 928 
L 3138 928 
Q 3300 1375 3366 1534 
L 4819 4841 
L 5625 4841 
L 5625 0 
L 5003 0 
z
" transform="scale(0.015625)"/>
       <path id="MicrosoftYaHei-27" d="M 4428 0 
L 3738 0 
L 3244 1325 
L 1228 1325 
L 763 0 
L 72 0 
L 1916 4841 
L 2584 4841 
L 4428 0 
z
M 3050 1872 
L 2319 3884 
Q 2284 3981 2244 4222 
L 2228 4222 
Q 2194 4003 2150 3884 
L 1425 1872 
L 3050 1872 
z
" transform="scale(0.015625)"/>
       <path id="MicrosoftYaHei-2b" d="M 3228 0 
L 625 0 
L 625 4841 
L 3119 4841 
L 3119 4284 
L 1250 4284 
L 1250 2734 
L 2981 2734 
L 2981 2181 
L 1250 2181 
L 1250 553 
L 3228 553 
L 3228 0 
z
" transform="scale(0.015625)"/>
       <path id="MicrosoftYaHei-23" d="M 3972 2497 
L 788 2497 
L 788 2969 
L 3972 2969 
L 3972 2497 
z
M 3972 1053 
L 788 1053 
L 788 1525 
L 3972 1525 
L 3972 1053 
z
" transform="scale(0.015625)"/>
       <path id="MicrosoftYaHei-14" d="M 372 322 
Q 372 491 487 606 
Q 603 722 775 722 
Q 950 722 1065 605 
Q 1181 488 1181 322 
Q 1181 159 1065 42 
Q 950 -75 772 -75 
Q 600 -75 486 42 
Q 372 159 372 322 
z
" transform="scale(0.015625)"/>
      </defs>
      <use xlink:href="#MicrosoftYaHei-53d"/>
      <use xlink:href="#MicrosoftYaHei-790" transform="translate(100 0)"/>
      <use xlink:href="#MicrosoftYaHei-863" transform="translate(200 0)"/>
      <use xlink:href="#MicrosoftYaHei-367" transform="translate(300 0)"/>
      <use xlink:href="#MicrosoftYaHei-18" transform="translate(400 0)"/>
      <use xlink:href="#MicrosoftYaHei-7c3" transform="translate(458.640625 0)"/>
      <use xlink:href="#MicrosoftYaHei-adc" transform="translate(558.640625 0)"/>
      <use xlink:href="#MicrosoftYaHei-3" transform="translate(658.640625 0)"/>
      <use xlink:href="#MicrosoftYaHei-33" transform="translate(688.234375 0)"/>
      <use xlink:href="#MicrosoftYaHei-27" transform="translate(785.9375 0)"/>
      <use xlink:href="#MicrosoftYaHei-2b" transform="translate(856.296875 0)"/>
      <use xlink:href="#MicrosoftYaHei-23" transform="translate(911.28125 0)"/>
      <use xlink:href="#MicrosoftYaHei-19" transform="translate(985.453125 0)"/>
      <use xlink:href="#MicrosoftYaHei-1c" transform="translate(1044.09375 0)"/>
      <use xlink:href="#MicrosoftYaHei-1c" transform="translate(1102.734375 0)"/>
      <use xlink:href="#MicrosoftYaHei-14" transform="translate(1161.375 0)"/>
      <use xlink:href="#MicrosoftYaHei-1e" transform="translate(1185.453125 0)"/>
      <use xlink:href="#MicrosoftYaHei-3" transform="translate(1244.09375 0)"/>
      <use xlink:href="#MicrosoftYaHei-51" transform="translate(1273.6875 0)"/>
      <use xlink:href="#MicrosoftYaHei-3d" transform="translate(1328.125 0)"/>
      <use xlink:href="#MicrosoftYaHei-368" transform="translate(1429.890625 0)"/>
     </g>
    </g>
    <g id="line2d_47">
     <path d="M 61.58418 77.381641 
L 71.58418 77.381641 
L 81.58418 77.381641 
" style="fill: none; stroke: #1677b8; stroke-width: 1.15; stroke-linecap: square"/>
    </g>
    <g id="text_25">
     <!-- pv 新方法（2月起 MAE=364.9 kW） -->
     <g transform="translate(89.58418 80.881641) scale(0.1 -0.1)">
      <defs>
       <path id="MicrosoftYaHei-56" d="M 1159 488 
L 1159 -1591 
L 547 -1591 
L 547 3456 
L 1159 3456 
L 1159 2859 
L 1172 2859 
Q 1578 3538 2359 3538 
Q 3022 3538 3398 3073 
Q 3775 2609 3775 1828 
Q 3775 966 3348 442 
Q 2922 -81 2200 -81 
Q 1534 -81 1172 488 
L 1159 488 
z
M 1156 1425 
Q 1156 1003 1428 714 
Q 1700 425 2109 425 
Q 2597 425 2872 800 
Q 3147 1175 3147 1838 
Q 3147 2397 2890 2714 
Q 2634 3031 2191 3031 
Q 1738 3031 1447 2709 
Q 1156 2388 1156 1884 
L 1156 1425 
z
" transform="scale(0.015625)"/>
       <path id="MicrosoftYaHei-5c" d="M 3331 3456 
L 1963 0 
L 1344 0 
L 44 3456 
L 713 3456 
L 1556 988 
Q 1659 691 1678 491 
L 1694 491 
Q 1725 753 1803 975 
L 2688 3456 
L 3331 3456 
z
" transform="scale(0.015625)"/>
      </defs>
      <use xlink:href="#MicrosoftYaHei-56"/>
      <use xlink:href="#MicrosoftYaHei-5c" transform="translate(63.875 0)"/>
      <use xlink:href="#MicrosoftYaHei-3" transform="translate(116.359375 0)"/>
      <use xlink:href="#MicrosoftYaHei-78f" transform="translate(145.953125 0)"/>
      <use xlink:href="#MicrosoftYaHei-790" transform="translate(245.953125 0)"/>
      <use xlink:href="#MicrosoftYaHei-863" transform="translate(345.953125 0)"/>
      <use xlink:href="#MicrosoftYaHei-367" transform="translate(445.953125 0)"/>
      <use xlink:href="#MicrosoftYaHei-18" transform="translate(545.953125 0)"/>
      <use xlink:href="#MicrosoftYaHei-7c3" transform="translate(604.59375 0)"/>
      <use xlink:href="#MicrosoftYaHei-adc" transform="translate(704.59375 0)"/>
      <use xlink:href="#MicrosoftYaHei-3" transform="translate(804.59375 0)"/>
      <use xlink:href="#MicrosoftYaHei-33" transform="translate(834.1875 0)"/>
      <use xlink:href="#MicrosoftYaHei-27" transform="translate(931.890625 0)"/>
      <use xlink:href="#MicrosoftYaHei-2b" transform="translate(1002.25 0)"/>
      <use xlink:href="#MicrosoftYaHei-23" transform="translate(1057.234375 0)"/>
      <use xlink:href="#MicrosoftYaHei-19" transform="translate(1131.40625 0)"/>
      <use xlink:href="#MicrosoftYaHei-1c" transform="translate(1190.046875 0)"/>
      <use xlink:href="#MicrosoftYaHei-1a" transform="translate(1248.6875 0)"/>
      <use xlink:href="#MicrosoftYaHei-14" transform="translate(1307.328125 0)"/>
      <use xlink:href="#MicrosoftYaHei-1f" transform="translate(1331.40625 0)"/>
      <use xlink:href="#MicrosoftYaHei-3" transform="translate(1390.046875 0)"/>
      <use xlink:href="#MicrosoftYaHei-51" transform="translate(1419.640625 0)"/>
      <use xlink:href="#MicrosoftYaHei-3d" transform="translate(1474.078125 0)"/>
      <use xlink:href="#MicrosoftYaHei-368" transform="translate(1575.84375 0)"/>
     </g>
    </g>
    <g id="line2d_48">
     <path d="M 61.58418 93.279883 
L 71.58418 93.279883 
L 81.58418 93.279883 
" style="fill: none; stroke: #e09f00; stroke-width: 2.3; stroke-linecap: square"/>
    </g>
    <g id="text_26">
     <!-- 未来 5 天新方法 -->
     <g transform="translate(89.58418 96.779883) scale(0.1 -0.1)">
      <defs>
       <path id="MicrosoftYaHei-7cc" d="M 6325 128 
Q 6150 -84 5975 -334 
Q 4328 488 3444 1791 
L 3444 -822 
L 2956 -822 
L 2956 1784 
Q 2006 525 419 -409 
Q 300 -241 81 9 
Q 1778 900 2763 2153 
L 181 2153 
L 181 2616 
L 2956 2616 
L 2956 3791 
L 550 3791 
L 550 4253 
L 2956 4253 
L 2956 5322 
L 3444 5322 
L 3444 4253 
L 5875 4253 
L 5875 3791 
L 3444 3791 
L 3444 2616 
L 6219 2616 
L 6219 2153 
L 3619 2153 
Q 4625 809 6325 128 
z
" transform="scale(0.015625)"/>
       <path id="MicrosoftYaHei-7db" d="M 6325 141 
Q 6119 -122 5975 -334 
Q 4344 403 3438 1550 
L 3438 -841 
L 2963 -841 
L 2963 1584 
Q 2050 516 413 -409 
Q 281 -222 75 22 
Q 1706 841 2806 1922 
L 181 1922 
L 181 2359 
L 2963 2359 
L 2963 4003 
L 550 4003 
L 550 4441 
L 2963 4441 
L 2963 5341 
L 3438 5341 
L 3438 4441 
L 5900 4441 
L 5900 4003 
L 3438 4003 
L 3438 2359 
L 6225 2359 
L 6225 1922 
L 3566 1922 
Q 4594 778 6325 141 
z
M 4056 2766 
Q 4631 3378 4950 3828 
L 5381 3497 
Q 4913 2941 4419 2453 
L 4056 2766 
z
M 1075 3509 
L 1438 3803 
Q 1900 3347 2313 2828 
L 1900 2484 
Q 1581 2922 1075 3509 
z
" transform="scale(0.015625)"/>
      </defs>
      <use xlink:href="#MicrosoftYaHei-7cc"/>
      <use xlink:href="#MicrosoftYaHei-7db" transform="translate(100 0)"/>
      <use xlink:href="#MicrosoftYaHei-3" transform="translate(200 0)"/>
      <use xlink:href="#MicrosoftYaHei-1b" transform="translate(229.59375 0)"/>
      <use xlink:href="#MicrosoftYaHei-3" transform="translate(288.234375 0)"/>
      <use xlink:href="#MicrosoftYaHei-5de" transform="translate(317.828125 0)"/>
      <use xlink:href="#MicrosoftYaHei-78f" transform="translate(417.828125 0)"/>
      <use xlink:href="#MicrosoftYaHei-790" transform="translate(517.828125 0)"/>
      <use xlink:href="#MicrosoftYaHei-863" transform="translate(617.828125 0)"/>
     </g>
    </g>
   </g>
  </g>
 </g>
 <defs>
  <clipPath id="p5eec805173">
   <rect x="52.58418" y="31.760156" width="1013.705703" height="368.037562"/>
  </clipPath>
 </defs>
</svg>
